<svg width="151" height="151" viewBox="0 0 151 151" fill="none" xmlns="http://www.w3.org/2000/svg">
<circle cx="75.5" cy="75.5" r="75.5" fill="#FEC431"/>
<path d="M79.2763 80.5961C79.2763 88.9863 76.9085 95.6347 72.1731 100.541C67.4377 105.418 60.9953 107.857 52.8459 107.857C43.9807 107.857 37.0014 104.91 31.9081 99.0169C26.8147 93.1234 24.2681 85.038 24.2681 74.7606C24.2681 64.6284 26.8147 56.601 31.9081 50.6785C37.0014 44.756 43.8843 41.7947 52.5568 41.7947C59.6049 41.7947 65.5104 43.7689 70.2734 47.7172C75.0364 51.6656 77.8584 56.9059 78.7394 63.4381H66.3502C65.4141 60.2446 63.7484 57.7768 61.3532 56.0349C58.9579 54.264 56.0258 53.3785 52.5568 53.3785C47.7388 53.3785 43.9394 55.2801 41.1587 59.0833C38.4056 62.8575 37.029 68.0397 37.029 74.63C37.029 81.3364 38.4606 86.6202 41.3239 90.4815C44.2147 94.3427 48.1242 96.2734 53.0524 96.2734C57.1271 96.2734 60.4584 95.1121 63.0464 92.7895C65.6343 90.467 66.9971 87.4041 67.1348 83.6009L67.1761 82.4686H54.25V72.5832H79.2763V80.5961Z" fill="white"/>
<path d="M128.081 94.7927V106.246H89.0958V43.406H101.568V94.7927H128.081Z" fill="white"/>
</svg>
