<svg width="1280" height="720" viewBox="0 0 1280 720" fill="none" xmlns="http://www.w3.org/2000/svg">
<g clip-path="url(#clip0_15_44)">
<rect width="1280" height="720" fill="white"/>
<circle cx="55.5" cy="-5.5" r="256.5" fill="#FFEE58"/>
<circle opacity="0.9" cx="1485.5" cy="651.5" r="476.5" fill="#FFD043"/>
<circle opacity="0.75" cx="171" cy="240" r="85" fill="#FFD043"/>
<circle opacity="0.75" cx="1026.5" cy="90.5" r="64.5" fill="#FDE233"/>
<circle opacity="0.75" cx="159.5" cy="708.5" r="241.5" fill="#FEDB03"/>
<circle opacity="0.75" cx="1264" cy="73" r="238" fill="#FEB92F"/>
<path fill-rule="evenodd" clip-rule="evenodd" d="M468.441 248.926C470.71 262.104 461.805 274.617 448.552 276.873L436.513 278.922C455.125 292.413 467.22 314.259 467.22 338.915C467.22 360.968 457.543 380.773 442.182 394.363C450.575 401.782 457.209 411.021 461.54 421.418C467.187 434.975 468.665 449.892 465.786 464.283C462.907 478.675 455.801 491.894 445.367 502.27C434.932 512.646 421.638 519.712 407.165 522.574C392.693 525.437 377.691 523.968 364.058 518.353C350.425 512.737 338.772 503.228 330.574 491.028C322.376 478.827 318 464.483 318 449.81H318.016C318.005 449.551 318 449.29 318 449.029C318 438.677 326.439 430.286 336.849 430.286C347.259 430.286 355.698 438.677 355.698 449.029C355.698 449.29 355.692 449.551 355.681 449.81H355.698C355.698 470.081 372.224 486.514 392.61 486.514C412.996 486.514 429.522 470.081 429.522 449.81C429.522 429.579 413.062 413.171 392.733 413.105L392.61 413.105C351.404 413.105 318 379.889 318 338.915C318 297.94 351.404 264.724 392.61 264.724C403.376 264.724 413.609 266.992 422.853 271.072L420.447 257.095C418.178 243.916 427.083 231.404 440.336 229.148C453.589 226.892 466.172 235.747 468.441 248.926ZM392.732 375.619C413.062 375.553 429.522 359.145 429.522 338.915C429.522 318.643 412.996 302.21 392.61 302.21C372.224 302.21 355.698 318.643 355.698 338.915C355.698 359.186 372.224 375.619 392.61 375.619L392.732 375.619Z" fill="#FFB000"/>
<path fill-rule="evenodd" clip-rule="evenodd" d="M557.537 413.105C598.742 413.105 632.146 379.888 632.146 338.914C632.146 297.94 598.742 264.724 557.537 264.724C516.331 264.724 482.927 297.94 482.927 338.914C482.927 379.888 516.331 413.105 557.537 413.105ZM557.537 375.619C577.923 375.619 594.449 359.186 594.449 338.914C594.449 318.643 577.923 302.209 557.537 302.209C537.15 302.209 520.624 318.643 520.624 338.914C520.624 359.186 537.15 375.619 557.537 375.619Z" fill="#FFB000"/>
<path fill-rule="evenodd" clip-rule="evenodd" d="M722.463 413.105C763.669 413.105 797.073 379.888 797.073 338.914C797.073 297.94 763.669 264.724 722.463 264.724C681.258 264.724 647.854 297.94 647.854 338.914C647.854 379.888 681.258 413.105 722.463 413.105ZM722.463 375.619C742.849 375.619 759.376 359.186 759.376 338.914C759.376 318.643 742.849 302.209 722.463 302.209C702.077 302.209 685.551 318.643 685.551 338.914C685.551 359.186 702.077 375.619 722.463 375.619Z" fill="#FFB000"/>
<path fill-rule="evenodd" clip-rule="evenodd" d="M962 394.362C962 404.713 953.561 413.105 943.151 413.105C935.616 413.105 929.113 408.708 926.096 402.353C914.812 409.176 901.562 413.105 887.39 413.105C846.184 413.105 812.781 379.889 812.781 338.914C812.781 297.94 846.184 264.724 887.39 264.724C900.818 264.724 913.418 268.251 924.302 274.425V214.743C924.302 204.391 932.741 196 943.151 196C953.561 196 962 204.391 962 214.743V394.362ZM924.302 338.914C924.302 359.186 907.776 375.619 887.39 375.619C867.004 375.619 850.478 359.186 850.478 338.914C850.478 318.643 867.004 302.21 887.39 302.21C907.776 302.21 924.302 318.643 924.302 338.914Z" fill="#FFB000"/>
<path d="M918.805 460.965C907.003 460.965 897.435 470.306 897.435 481.828V513.234C897.435 519.18 892.549 524 886.522 524C880.496 524 875.61 519.18 875.61 513.234V450.867C875.61 444.921 880.496 440.101 886.522 440.101C890.73 440.101 894.381 442.45 896.202 445.892C898.137 444.731 900.167 443.72 902.275 442.867C907.516 440.748 913.133 439.657 918.805 439.657C924.477 439.657 930.094 440.748 935.335 442.867C940.576 444.987 945.338 448.093 949.349 452.009C953.36 455.925 956.541 460.574 958.712 465.69C960.527 469.967 961.605 474.5 961.91 479.108C961.97 479.562 962 480.026 962 480.497V513.234C962 519.18 957.114 524 951.088 524C945.061 524 940.175 519.18 940.175 513.234V481.828C940.175 470.306 930.607 460.965 918.805 460.965Z" fill="#292A2E"/>
<path d="M801.807 445.892C800 442.45 796.375 440.101 792.198 440.101C786.216 440.101 781.366 444.921 781.366 450.867L781.366 481.82C781.366 481.823 781.366 481.825 781.366 481.828L781.366 513.234C781.366 519.18 786.216 524 792.198 524C798.181 524 803.031 519.18 803.031 513.234V481.828C803.031 470.306 812.529 460.965 824.245 460.965C830.867 460.965 836.78 463.949 840.671 468.624L840.692 468.607C842.679 470.988 845.694 472.506 849.07 472.506C855.053 472.506 859.902 467.736 859.902 461.853C859.902 458.97 858.739 456.356 856.848 454.438C851.313 448.065 843.966 443.453 835.742 441.201C827.22 438.868 818.172 439.185 809.839 442.108C807.021 443.097 804.331 444.368 801.807 445.892Z" fill="#292A2E"/>
<path fill-rule="evenodd" clip-rule="evenodd" d="M744.896 517.874C738.358 521.761 730.678 524 722.463 524C698.607 524 679.268 505.119 679.268 481.828C679.268 458.538 698.607 439.657 722.463 439.657C730.751 439.657 738.493 441.936 745.069 445.886C746.891 442.448 750.541 440.101 754.746 440.101C760.773 440.101 765.659 444.921 765.659 450.867V513.234C765.659 519.18 760.773 524 754.746 524C750.403 524 746.653 521.497 744.896 517.874ZM743.834 481.828C743.834 493.351 734.266 502.692 722.463 502.692C710.661 502.692 701.093 493.351 701.093 481.828C701.093 470.306 710.661 460.965 722.463 460.965C734.266 460.965 743.834 470.306 743.834 481.828Z" fill="#292A2E"/>
<path fill-rule="evenodd" clip-rule="evenodd" d="M646.046 516.808C654.478 511.132 660.594 502.621 663.226 492.814C663.893 490.215 663.582 487.365 662.132 484.858C659.191 479.771 652.676 478.029 647.581 480.965C645.091 482.401 643.373 484.682 642.639 487.24C641.266 492.41 637.911 497.053 632.906 499.939C624.662 504.691 614.52 503.186 607.996 496.901L646.825 474.517C653.035 470.937 662.26 465.62 652.165 451.994C650.498 449.744 648.588 447.916 644.333 445.252C635.717 439.858 625.983 438.737 615.937 440.312C605.891 441.887 596.753 447.034 590.208 454.804C583.662 462.575 580.15 472.445 580.318 482.598C580.374 486.004 580.835 489.372 581.691 492.62C582.625 496.156 584.04 499.628 585.959 502.947L585.99 503C586.961 504.674 588.03 506.257 589.185 507.744C589.8 508.534 590.449 509.301 591.123 510.049C597.922 517.599 607.226 522.442 617.318 523.684C627.411 524.926 637.614 522.484 646.046 516.808ZM601.872 478.643C602.826 472.655 606.377 467.132 612.046 463.864C617.715 460.596 624.281 460.287 629.952 462.456L601.872 478.643Z" fill="#292A2E"/>
<path d="M518.864 420.914C518.864 415.031 513.984 410.262 507.964 410.262C501.944 410.262 497.063 415.031 497.063 420.914V513.347C497.063 518.863 501.353 523.399 506.849 523.945C507.216 523.981 507.588 524 507.964 524H561.558C567.578 524 572.459 519.231 572.459 513.347C572.459 507.464 567.578 502.695 561.558 502.695H527.04C522.525 502.695 518.864 499.118 518.864 494.706V420.914Z" fill="#292A2E"/>
</g>
<defs>
<clipPath id="clip0_15_44">
<rect width="1280" height="720" fill="white"/>
</clipPath>
</defs>
</svg>
