<svg width="4744" height="1398" viewBox="0 0 4744 1398" fill="none" xmlns="http://www.w3.org/2000/svg">
<g clip-path="url(#clip0_15_44)">
<g filter="url(#filter0_d_15_44)">
<circle cx="167.325" cy="129.325" r="472.325" fill="#FFEE58"/>
</g>
<g opacity="0.9" filter="url(#filter1_d_15_44)">
<circle cx="4589.44" cy="1547.44" r="877.439" fill="#FFD043"/>
</g>
<g opacity="0.75" filter="url(#filter2_d_15_44)">
<circle cx="705.521" cy="94.521" r="156.521" fill="#FFD043"/>
</g>
<g opacity="0.75" filter="url(#filter3_d_15_44)">
<circle cx="3578.5" cy="24.5" r="216.5" fill="#FDE233"/>
</g>
<g opacity="0.2" filter="url(#filter4_d_15_44)">
<circle cx="1285.5" cy="385.5" r="216.5" fill="#FDE233"/>
</g>
<g opacity="0.75" filter="url(#filter5_d_15_44)">
<circle cx="4589.26" cy="25.2589" r="438.259" fill="#FEB92F"/>
</g>
<g opacity="0.75" filter="url(#filter6_d_15_44)">
<circle cx="348.5" cy="1528.5" r="807.5" fill="#FEDB03"/>
</g>
<g filter="url(#filter7_d_15_44)">
<path fill-rule="evenodd" clip-rule="evenodd" d="M1824.82 314.781C1832.06 356.808 1803.66 396.711 1761.39 403.905L1722.99 410.44C1782.35 453.463 1820.93 523.131 1820.93 601.758C1820.93 672.086 1790.06 735.247 1741.07 778.583C1767.84 802.243 1789 831.706 1802.81 864.864C1820.82 908.096 1825.54 955.667 1816.35 1001.56C1807.17 1047.46 1784.51 1089.61 1751.23 1122.7C1717.95 1155.79 1675.55 1178.32 1629.39 1187.45C1583.23 1196.58 1535.38 1191.9 1491.9 1173.99C1448.42 1156.08 1411.25 1125.76 1385.1 1086.85C1358.96 1047.94 1345 1002.2 1345 955.405H1345.05C1345.02 954.579 1345 953.748 1345 952.914C1345 919.903 1371.92 893.143 1405.12 893.143C1438.32 893.143 1465.23 919.903 1465.23 952.914C1465.23 953.748 1465.22 954.579 1465.18 955.405H1465.23C1465.23 1020.05 1517.94 1072.46 1582.96 1072.46C1647.98 1072.46 1700.69 1020.05 1700.69 955.405C1700.69 890.888 1648.2 838.563 1583.36 838.353L1582.96 838.353C1451.54 838.353 1345 732.426 1345 601.758C1345 471.09 1451.54 365.163 1582.96 365.163C1617.3 365.163 1649.94 372.394 1679.42 385.407L1671.75 340.834C1664.51 298.806 1692.91 258.904 1735.18 251.71C1777.45 244.515 1817.59 272.753 1824.82 314.781ZM1583.35 718.81C1648.19 718.6 1700.69 666.275 1700.69 601.758C1700.69 537.112 1647.98 484.706 1582.96 484.706C1517.94 484.706 1465.23 537.112 1465.23 601.758C1465.23 666.404 1517.94 718.81 1582.96 718.81L1583.35 718.81Z" fill="#FFB000"/>
</g>
<g filter="url(#filter8_d_15_44)">
<path fill-rule="evenodd" clip-rule="evenodd" d="M2108.99 838.352C2240.41 838.352 2346.95 732.425 2346.95 601.757C2346.95 471.089 2240.41 365.162 2108.99 365.162C1977.56 365.162 1871.02 471.089 1871.02 601.757C1871.02 732.425 1977.56 838.352 2108.99 838.352ZM2108.99 718.809C2174.01 718.809 2226.72 666.403 2226.72 601.757C2226.72 537.111 2174.01 484.705 2108.99 484.705C2043.97 484.705 1991.26 537.111 1991.26 601.757C1991.26 666.403 2043.97 718.809 2108.99 718.809Z" fill="#FFB000"/>
</g>
<g filter="url(#filter9_d_15_44)">
<path fill-rule="evenodd" clip-rule="evenodd" d="M2635.01 838.352C2766.44 838.352 2872.98 732.425 2872.98 601.757C2872.98 471.089 2766.44 365.162 2635.01 365.162C2503.59 365.162 2397.05 471.089 2397.05 601.757C2397.05 732.425 2503.59 838.352 2635.01 838.352ZM2635.01 718.809C2700.03 718.809 2752.74 666.403 2752.74 601.757C2752.74 537.111 2700.03 484.705 2635.01 484.705C2569.99 484.705 2517.28 537.111 2517.28 601.757C2517.28 666.403 2569.99 718.809 2635.01 718.809Z" fill="#FFB000"/>
</g>
<g filter="url(#filter10_d_15_44)">
<path fill-rule="evenodd" clip-rule="evenodd" d="M3399 778.581C3399 811.592 3372.08 838.352 3338.88 838.352C3314.85 838.352 3294.11 824.33 3284.49 804.064C3248.5 825.822 3206.24 838.352 3161.04 838.352C3029.61 838.352 2923.07 732.425 2923.07 601.757C2923.07 471.089 3029.61 365.162 3161.04 365.162C3203.86 365.162 3244.05 376.411 3278.77 396.099V205.771C3278.77 172.761 3305.68 146 3338.88 146C3372.08 146 3399 172.761 3399 205.771V778.581ZM3278.77 601.757C3278.77 666.403 3226.06 718.809 3161.04 718.809C3096.02 718.809 3043.31 666.403 3043.31 601.757C3043.31 537.111 3096.02 484.705 3161.04 484.705C3226.06 484.705 3278.77 537.111 3278.77 601.757Z" fill="#FFB000"/>
</g>
<g filter="url(#filter11_d_15_44)">
<path d="M3261.23 990.979C3223.59 990.979 3193.07 1020.77 3193.07 1057.51V1157.67C3193.07 1176.63 3177.49 1192 3158.27 1192C3139.05 1192 3123.46 1176.63 3123.46 1157.67V958.777C3123.46 939.815 3139.05 924.444 3158.27 924.444C3171.69 924.444 3183.33 931.935 3189.14 942.91C3195.31 939.211 3201.79 935.983 3208.51 933.265C3225.23 926.507 3243.14 923.028 3261.23 923.028C3279.32 923.028 3297.24 926.507 3313.95 933.265C3330.67 940.024 3345.86 949.93 3358.65 962.418C3371.44 974.906 3381.59 989.732 3388.51 1006.05C3394.3 1019.69 3397.74 1034.14 3398.71 1048.84C3398.9 1050.29 3399 1051.77 3399 1053.27V1157.67C3399 1176.63 3383.42 1192 3364.2 1192C3344.97 1192 3329.39 1176.63 3329.39 1157.67V1057.51C3329.39 1020.77 3298.88 990.979 3261.23 990.979Z" fill="#292A2E"/>
</g>
<g filter="url(#filter12_d_15_44)">
<path d="M2888.08 942.91C2882.31 931.935 2870.75 924.444 2857.43 924.444C2838.35 924.444 2822.88 939.815 2822.88 958.777L2822.88 1057.49C2822.88 1057.5 2822.88 1057.5 2822.88 1057.51L2822.88 1157.67C2822.88 1176.63 2838.35 1192 2857.43 1192C2876.51 1192 2891.98 1176.63 2891.98 1157.67V1057.51C2891.98 1020.77 2922.27 990.979 2959.64 990.979C2980.76 990.979 2999.62 1000.49 3012.03 1015.4L3012.09 1015.35C3018.43 1022.94 3028.05 1027.79 3038.82 1027.79C3057.9 1027.79 3073.37 1012.57 3073.37 993.81C3073.37 984.619 3069.65 976.28 3063.62 970.164C3045.97 949.84 3022.54 935.132 2996.31 927.953C2969.13 920.513 2940.27 921.523 2913.69 930.845C2904.7 933.999 2896.12 938.05 2888.08 942.91Z" fill="#292A2E"/>
</g>
<g filter="url(#filter13_d_15_44)">
<path fill-rule="evenodd" clip-rule="evenodd" d="M2706.56 1172.46C2685.71 1184.86 2661.21 1192 2635.01 1192C2558.92 1192 2497.24 1131.79 2497.24 1057.51C2497.24 983.239 2558.92 923.028 2635.01 923.028C2661.44 923.028 2686.14 930.295 2707.11 942.893C2712.92 931.928 2724.56 924.444 2737.98 924.444C2757.2 924.444 2772.78 939.815 2772.78 958.777V1157.67C2772.78 1176.63 2757.2 1192 2737.98 1192C2724.12 1192 2712.16 1184.02 2706.56 1172.46ZM2703.17 1057.51C2703.17 1094.26 2672.66 1124.05 2635.01 1124.05C2597.37 1124.05 2566.85 1094.26 2566.85 1057.51C2566.85 1020.77 2597.37 990.979 2635.01 990.979C2672.66 990.979 2703.17 1020.77 2703.17 1057.51Z" fill="#292A2E"/>
</g>
<g filter="url(#filter14_d_15_44)">
<path fill-rule="evenodd" clip-rule="evenodd" d="M2391.28 1169.06C2418.18 1150.96 2437.68 1123.82 2446.08 1092.55C2448.2 1084.26 2447.21 1075.17 2442.59 1067.18C2433.21 1050.95 2412.43 1045.4 2396.18 1054.76C2388.24 1059.34 2382.76 1066.61 2380.42 1074.77C2376.04 1091.26 2365.34 1106.07 2349.37 1115.27C2323.08 1130.42 2290.73 1125.62 2269.92 1105.58L2393.77 1034.2C2413.57 1022.78 2443 1005.82 2410.8 962.372C2405.48 955.197 2399.39 949.367 2385.82 940.871C2358.34 923.668 2327.29 920.096 2295.25 925.117C2263.21 930.139 2234.07 946.552 2213.19 971.332C2192.31 996.113 2181.11 1027.59 2181.65 1059.97C2181.83 1070.83 2183.3 1081.57 2186.03 1091.93C2189.01 1103.2 2193.52 1114.28 2199.64 1124.86L2199.74 1125.03C2202.83 1130.37 2206.24 1135.42 2209.93 1140.16C2211.89 1142.68 2213.96 1145.12 2216.11 1147.51C2237.8 1171.59 2267.47 1187.03 2299.66 1190.99C2331.85 1194.95 2364.39 1187.16 2391.28 1169.06ZM2250.39 1047.36C2253.43 1028.26 2264.76 1010.65 2282.84 1000.22C2300.92 989.803 2321.87 988.817 2339.95 995.736L2250.39 1047.36Z" fill="#292A2E"/>
</g>
<g filter="url(#filter15_d_15_44)">
<path d="M1985.65 863.257C1985.65 844.495 1970.08 829.286 1950.88 829.286C1931.68 829.286 1916.11 844.495 1916.11 863.257V1158.03C1916.11 1175.62 1929.79 1190.08 1947.32 1191.82C1948.49 1191.94 1949.68 1192 1950.88 1192H2121.81C2141.02 1192 2156.58 1176.79 2156.58 1158.03C2156.58 1139.27 2141.02 1124.06 2121.81 1124.06H2011.72C1997.32 1124.06 1985.65 1112.65 1985.65 1098.58V863.257Z" fill="#292A2E"/>
</g>
</g>
<defs>
<filter id="filter0_d_15_44" x="-309" y="-343" width="952.65" height="952.651" filterUnits="userSpaceOnUse" color-interpolation-filters="sRGB">
<feFlood flood-opacity="0" result="BackgroundImageFix"/>
<feColorMatrix in="SourceAlpha" type="matrix" values="0 0 0 0 0 0 0 0 0 0 0 0 0 0 0 0 0 0 127 0" result="hardAlpha"/>
<feOffset dy="4"/>
<feGaussianBlur stdDeviation="2"/>
<feComposite in2="hardAlpha" operator="out"/>
<feColorMatrix type="matrix" values="0 0 0 0 0 0 0 0 0 0 0 0 0 0 0 0 0 0 0.25 0"/>
<feBlend mode="normal" in2="BackgroundImageFix" result="effect1_dropShadow_15_44"/>
<feBlend mode="normal" in="SourceGraphic" in2="effect1_dropShadow_15_44" result="shape"/>
</filter>
<filter id="filter1_d_15_44" x="3708" y="670" width="1762.88" height="1762.88" filterUnits="userSpaceOnUse" color-interpolation-filters="sRGB">
<feFlood flood-opacity="0" result="BackgroundImageFix"/>
<feColorMatrix in="SourceAlpha" type="matrix" values="0 0 0 0 0 0 0 0 0 0 0 0 0 0 0 0 0 0 127 0" result="hardAlpha"/>
<feOffset dy="4"/>
<feGaussianBlur stdDeviation="2"/>
<feComposite in2="hardAlpha" operator="out"/>
<feColorMatrix type="matrix" values="0 0 0 0 0 0 0 0 0 0 0 0 0 0 0 0 0 0 0.25 0"/>
<feBlend mode="normal" in2="BackgroundImageFix" result="effect1_dropShadow_15_44"/>
<feBlend mode="normal" in="SourceGraphic" in2="effect1_dropShadow_15_44" result="shape"/>
</filter>
<filter id="filter2_d_15_44" x="545" y="-62" width="321.042" height="321.042" filterUnits="userSpaceOnUse" color-interpolation-filters="sRGB">
<feFlood flood-opacity="0" result="BackgroundImageFix"/>
<feColorMatrix in="SourceAlpha" type="matrix" values="0 0 0 0 0 0 0 0 0 0 0 0 0 0 0 0 0 0 127 0" result="hardAlpha"/>
<feOffset dy="4"/>
<feGaussianBlur stdDeviation="2"/>
<feComposite in2="hardAlpha" operator="out"/>
<feColorMatrix type="matrix" values="0 0 0 0 0 0 0 0 0 0 0 0 0 0 0 0 0 0 0.25 0"/>
<feBlend mode="normal" in2="BackgroundImageFix" result="effect1_dropShadow_15_44"/>
<feBlend mode="normal" in="SourceGraphic" in2="effect1_dropShadow_15_44" result="shape"/>
</filter>
<filter id="filter3_d_15_44" x="3358" y="-192" width="441" height="441" filterUnits="userSpaceOnUse" color-interpolation-filters="sRGB">
<feFlood flood-opacity="0" result="BackgroundImageFix"/>
<feColorMatrix in="SourceAlpha" type="matrix" values="0 0 0 0 0 0 0 0 0 0 0 0 0 0 0 0 0 0 127 0" result="hardAlpha"/>
<feOffset dy="4"/>
<feGaussianBlur stdDeviation="2"/>
<feComposite in2="hardAlpha" operator="out"/>
<feColorMatrix type="matrix" values="0 0 0 0 0 0 0 0 0 0 0 0 0 0 0 0 0 0 0.25 0"/>
<feBlend mode="normal" in2="BackgroundImageFix" result="effect1_dropShadow_15_44"/>
<feBlend mode="normal" in="SourceGraphic" in2="effect1_dropShadow_15_44" result="shape"/>
</filter>
<filter id="filter4_d_15_44" x="1065" y="169" width="441" height="441" filterUnits="userSpaceOnUse" color-interpolation-filters="sRGB">
<feFlood flood-opacity="0" result="BackgroundImageFix"/>
<feColorMatrix in="SourceAlpha" type="matrix" values="0 0 0 0 0 0 0 0 0 0 0 0 0 0 0 0 0 0 127 0" result="hardAlpha"/>
<feOffset dy="4"/>
<feGaussianBlur stdDeviation="2"/>
<feComposite in2="hardAlpha" operator="out"/>
<feColorMatrix type="matrix" values="0 0 0 0 0 0 0 0 0 0 0 0 0 0 0 0 0 0 0.25 0"/>
<feBlend mode="normal" in2="BackgroundImageFix" result="effect1_dropShadow_15_44"/>
<feBlend mode="normal" in="SourceGraphic" in2="effect1_dropShadow_15_44" result="shape"/>
</filter>
<filter id="filter5_d_15_44" x="4147" y="-413" width="884.518" height="884.518" filterUnits="userSpaceOnUse" color-interpolation-filters="sRGB">
<feFlood flood-opacity="0" result="BackgroundImageFix"/>
<feColorMatrix in="SourceAlpha" type="matrix" values="0 0 0 0 0 0 0 0 0 0 0 0 0 0 0 0 0 0 127 0" result="hardAlpha"/>
<feOffset dy="4"/>
<feGaussianBlur stdDeviation="2"/>
<feComposite in2="hardAlpha" operator="out"/>
<feColorMatrix type="matrix" values="0 0 0 0 0 0 0 0 0 0 0 0 0 0 0 0 0 0 0.25 0"/>
<feBlend mode="normal" in2="BackgroundImageFix" result="effect1_dropShadow_15_44"/>
<feBlend mode="normal" in="SourceGraphic" in2="effect1_dropShadow_15_44" result="shape"/>
</filter>
<filter id="filter6_d_15_44" x="-463" y="721" width="1623" height="1623" filterUnits="userSpaceOnUse" color-interpolation-filters="sRGB">
<feFlood flood-opacity="0" result="BackgroundImageFix"/>
<feColorMatrix in="SourceAlpha" type="matrix" values="0 0 0 0 0 0 0 0 0 0 0 0 0 0 0 0 0 0 127 0" result="hardAlpha"/>
<feOffset dy="4"/>
<feGaussianBlur stdDeviation="2"/>
<feComposite in2="hardAlpha" operator="out"/>
<feColorMatrix type="matrix" values="0 0 0 0 0 0 0 0 0 0 0 0 0 0 0 0 0 0 0.25 0"/>
<feBlend mode="normal" in2="BackgroundImageFix" result="effect1_dropShadow_15_44"/>
<feBlend mode="normal" in="SourceGraphic" in2="effect1_dropShadow_15_44" result="shape"/>
</filter>
<filter id="filter7_d_15_44" x="1282" y="227.59" width="606.949" height="1067.41" filterUnits="userSpaceOnUse" color-interpolation-filters="sRGB">
<feFlood flood-opacity="0" result="BackgroundImageFix"/>
<feColorMatrix in="SourceAlpha" type="matrix" values="0 0 0 0 0 0 0 0 0 0 0 0 0 0 0 0 0 0 127 0" result="hardAlpha"/>
<feOffset dy="40"/>
<feGaussianBlur stdDeviation="31.5"/>
<feComposite in2="hardAlpha" operator="out"/>
<feColorMatrix type="matrix" values="0 0 0 0 0 0 0 0 0 0 0 0 0 0 0 0 0 0 0.25 0"/>
<feBlend mode="normal" in2="BackgroundImageFix" result="effect1_dropShadow_15_44"/>
<feBlend mode="normal" in="SourceGraphic" in2="effect1_dropShadow_15_44" result="shape"/>
</filter>
<filter id="filter8_d_15_44" x="1808.02" y="342.162" width="601.927" height="599.19" filterUnits="userSpaceOnUse" color-interpolation-filters="sRGB">
<feFlood flood-opacity="0" result="BackgroundImageFix"/>
<feColorMatrix in="SourceAlpha" type="matrix" values="0 0 0 0 0 0 0 0 0 0 0 0 0 0 0 0 0 0 127 0" result="hardAlpha"/>
<feOffset dy="40"/>
<feGaussianBlur stdDeviation="31.5"/>
<feComposite in2="hardAlpha" operator="out"/>
<feColorMatrix type="matrix" values="0 0 0 0 0 0 0 0 0 0 0 0 0 0 0 0 0 0 0.25 0"/>
<feBlend mode="normal" in2="BackgroundImageFix" result="effect1_dropShadow_15_44"/>
<feBlend mode="normal" in="SourceGraphic" in2="effect1_dropShadow_15_44" result="shape"/>
</filter>
<filter id="filter9_d_15_44" x="2334.05" y="342.162" width="601.927" height="599.19" filterUnits="userSpaceOnUse" color-interpolation-filters="sRGB">
<feFlood flood-opacity="0" result="BackgroundImageFix"/>
<feColorMatrix in="SourceAlpha" type="matrix" values="0 0 0 0 0 0 0 0 0 0 0 0 0 0 0 0 0 0 127 0" result="hardAlpha"/>
<feOffset dy="40"/>
<feGaussianBlur stdDeviation="31.5"/>
<feComposite in2="hardAlpha" operator="out"/>
<feColorMatrix type="matrix" values="0 0 0 0 0 0 0 0 0 0 0 0 0 0 0 0 0 0 0.25 0"/>
<feBlend mode="normal" in2="BackgroundImageFix" result="effect1_dropShadow_15_44"/>
<feBlend mode="normal" in="SourceGraphic" in2="effect1_dropShadow_15_44" result="shape"/>
</filter>
<filter id="filter10_d_15_44" x="2860.07" y="123" width="601.927" height="818.352" filterUnits="userSpaceOnUse" color-interpolation-filters="sRGB">
<feFlood flood-opacity="0" result="BackgroundImageFix"/>
<feColorMatrix in="SourceAlpha" type="matrix" values="0 0 0 0 0 0 0 0 0 0 0 0 0 0 0 0 0 0 127 0" result="hardAlpha"/>
<feOffset dy="40"/>
<feGaussianBlur stdDeviation="31.5"/>
<feComposite in2="hardAlpha" operator="out"/>
<feColorMatrix type="matrix" values="0 0 0 0 0 0 0 0 0 0 0 0 0 0 0 0 0 0 0.25 0"/>
<feBlend mode="normal" in2="BackgroundImageFix" result="effect1_dropShadow_15_44"/>
<feBlend mode="normal" in="SourceGraphic" in2="effect1_dropShadow_15_44" result="shape"/>
</filter>
<filter id="filter11_d_15_44" x="3060.46" y="900.028" width="401.537" height="394.971" filterUnits="userSpaceOnUse" color-interpolation-filters="sRGB">
<feFlood flood-opacity="0" result="BackgroundImageFix"/>
<feColorMatrix in="SourceAlpha" type="matrix" values="0 0 0 0 0 0 0 0 0 0 0 0 0 0 0 0 0 0 127 0" result="hardAlpha"/>
<feOffset dy="40"/>
<feGaussianBlur stdDeviation="31.5"/>
<feComposite in2="hardAlpha" operator="out"/>
<feColorMatrix type="matrix" values="0 0 0 0 0 0 0 0 0 0 0 0 0 0 0 0 0 0 0.25 0"/>
<feBlend mode="normal" in2="BackgroundImageFix" result="effect1_dropShadow_15_44"/>
<feBlend mode="normal" in="SourceGraphic" in2="effect1_dropShadow_15_44" result="shape"/>
</filter>
<filter id="filter12_d_15_44" x="2759.88" y="900.028" width="376.488" height="394.971" filterUnits="userSpaceOnUse" color-interpolation-filters="sRGB">
<feFlood flood-opacity="0" result="BackgroundImageFix"/>
<feColorMatrix in="SourceAlpha" type="matrix" values="0 0 0 0 0 0 0 0 0 0 0 0 0 0 0 0 0 0 127 0" result="hardAlpha"/>
<feOffset dy="40"/>
<feGaussianBlur stdDeviation="31.5"/>
<feComposite in2="hardAlpha" operator="out"/>
<feColorMatrix type="matrix" values="0 0 0 0 0 0 0 0 0 0 0 0 0 0 0 0 0 0 0.25 0"/>
<feBlend mode="normal" in2="BackgroundImageFix" result="effect1_dropShadow_15_44"/>
<feBlend mode="normal" in="SourceGraphic" in2="effect1_dropShadow_15_44" result="shape"/>
</filter>
<filter id="filter13_d_15_44" x="2434.24" y="900.028" width="401.537" height="394.971" filterUnits="userSpaceOnUse" color-interpolation-filters="sRGB">
<feFlood flood-opacity="0" result="BackgroundImageFix"/>
<feColorMatrix in="SourceAlpha" type="matrix" values="0 0 0 0 0 0 0 0 0 0 0 0 0 0 0 0 0 0 127 0" result="hardAlpha"/>
<feOffset dy="40"/>
<feGaussianBlur stdDeviation="31.5"/>
<feComposite in2="hardAlpha" operator="out"/>
<feColorMatrix type="matrix" values="0 0 0 0 0 0 0 0 0 0 0 0 0 0 0 0 0 0 0.25 0"/>
<feBlend mode="normal" in2="BackgroundImageFix" result="effect1_dropShadow_15_44"/>
<feBlend mode="normal" in="SourceGraphic" in2="effect1_dropShadow_15_44" result="shape"/>
</filter>
<filter id="filter14_d_15_44" x="2118.63" y="900.028" width="391.517" height="394.971" filterUnits="userSpaceOnUse" color-interpolation-filters="sRGB">
<feFlood flood-opacity="0" result="BackgroundImageFix"/>
<feColorMatrix in="SourceAlpha" type="matrix" values="0 0 0 0 0 0 0 0 0 0 0 0 0 0 0 0 0 0 127 0" result="hardAlpha"/>
<feOffset dy="40"/>
<feGaussianBlur stdDeviation="31.5"/>
<feComposite in2="hardAlpha" operator="out"/>
<feColorMatrix type="matrix" values="0 0 0 0 0 0 0 0 0 0 0 0 0 0 0 0 0 0 0.25 0"/>
<feBlend mode="normal" in2="BackgroundImageFix" result="effect1_dropShadow_15_44"/>
<feBlend mode="normal" in="SourceGraphic" in2="effect1_dropShadow_15_44" result="shape"/>
</filter>
<filter id="filter15_d_15_44" x="1853.11" y="806.286" width="366.468" height="488.714" filterUnits="userSpaceOnUse" color-interpolation-filters="sRGB">
<feFlood flood-opacity="0" result="BackgroundImageFix"/>
<feColorMatrix in="SourceAlpha" type="matrix" values="0 0 0 0 0 0 0 0 0 0 0 0 0 0 0 0 0 0 127 0" result="hardAlpha"/>
<feOffset dy="40"/>
<feGaussianBlur stdDeviation="31.5"/>
<feComposite in2="hardAlpha" operator="out"/>
<feColorMatrix type="matrix" values="0 0 0 0 0 0 0 0 0 0 0 0 0 0 0 0 0 0 0.25 0"/>
<feBlend mode="normal" in2="BackgroundImageFix" result="effect1_dropShadow_15_44"/>
<feBlend mode="normal" in="SourceGraphic" in2="effect1_dropShadow_15_44" result="shape"/>
</filter>
<clipPath id="clip0_15_44">
<rect width="4744" height="1398" fill="white"/>
</clipPath>
</defs>
</svg>
