<svg width="3072" height="1728" viewBox="0 0 3072 1728" fill="none" xmlns="http://www.w3.org/2000/svg">
<g clip-path="url(#clip0_15_44)">
<rect width="3072" height="1728" fill="white"/>
<circle cx="271.325" cy="210.325" r="472.325" fill="#FFEE58"/>
<circle opacity="0.9" cx="3072.44" cy="1439.44" r="877.439" fill="#FFD043"/>
<circle opacity="0.75" cx="484.01" cy="662.395" r="156.521" fill="#FFD043"/>
<circle opacity="0.75" cx="2439.77" cy="227.772" r="118.772" fill="#FDE233"/>
<circle opacity="0.75" cx="2869.26" cy="250.259" r="438.259" fill="#FEB92F"/>
<circle opacity="0.75" cx="185" cy="1564" r="530" fill="#FEDB03"/>
<path fill-rule="evenodd" clip-rule="evenodd" d="M989.823 442.781C997.059 484.808 968.658 524.711 926.387 531.905L887.99 538.44C947.351 581.463 985.927 651.131 985.927 729.758C985.927 800.086 955.065 863.247 906.071 906.583C932.839 930.243 953.999 959.706 967.813 992.864C985.824 1036.1 990.536 1083.67 981.354 1129.56C972.173 1175.46 949.509 1217.61 916.229 1250.7C882.949 1283.79 840.548 1306.32 794.388 1315.45C748.227 1324.58 700.381 1319.9 656.899 1301.99C613.417 1284.08 576.252 1253.76 550.104 1214.85C523.956 1175.94 510 1130.2 510 1083.4H510.051C510.017 1082.58 510 1081.75 510 1080.91C510 1047.9 536.915 1021.14 570.117 1021.14C603.319 1021.14 630.234 1047.9 630.234 1080.91C630.234 1081.75 630.217 1082.58 630.183 1083.4H630.234C630.234 1148.05 682.943 1200.46 747.963 1200.46C812.983 1200.46 865.693 1148.05 865.693 1083.4C865.693 1018.89 813.195 966.563 748.356 966.353L747.963 966.353C616.54 966.353 510 860.426 510 729.758C510 599.09 616.54 493.163 747.963 493.163C782.3 493.163 814.938 500.394 844.422 513.407L836.747 468.834C829.511 426.806 857.913 386.904 900.183 379.71C942.454 372.515 982.587 400.753 989.823 442.781ZM748.354 846.81C813.195 846.6 865.693 794.275 865.693 729.758C865.693 665.112 812.983 612.706 747.963 612.706C682.943 612.706 630.234 665.112 630.234 729.758C630.234 794.404 682.943 846.81 747.963 846.81L748.354 846.81Z" fill="#FFB000"/>
<path fill-rule="evenodd" clip-rule="evenodd" d="M1273.99 966.352C1405.41 966.352 1511.95 860.425 1511.95 729.757C1511.95 599.089 1405.41 493.162 1273.99 493.162C1142.56 493.162 1036.02 599.089 1036.02 729.757C1036.02 860.425 1142.56 966.352 1273.99 966.352ZM1273.99 846.809C1339.01 846.809 1391.72 794.403 1391.72 729.757C1391.72 665.111 1339.01 612.705 1273.99 612.705C1208.97 612.705 1156.26 665.111 1156.26 729.757C1156.26 794.403 1208.97 846.809 1273.99 846.809Z" fill="#FFB000"/>
<path fill-rule="evenodd" clip-rule="evenodd" d="M1800.01 966.352C1931.44 966.352 2037.98 860.425 2037.98 729.757C2037.98 599.089 1931.44 493.162 1800.01 493.162C1668.59 493.162 1562.05 599.089 1562.05 729.757C1562.05 860.425 1668.59 966.352 1800.01 966.352ZM1800.01 846.809C1865.03 846.809 1917.74 794.403 1917.74 729.757C1917.74 665.111 1865.03 612.705 1800.01 612.705C1734.99 612.705 1682.28 665.111 1682.28 729.757C1682.28 794.403 1734.99 846.809 1800.01 846.809Z" fill="#FFB000"/>
<path fill-rule="evenodd" clip-rule="evenodd" d="M2564 906.581C2564 939.592 2537.08 966.352 2503.88 966.352C2479.85 966.352 2459.11 952.33 2449.49 932.064C2413.5 953.822 2371.24 966.352 2326.04 966.352C2194.61 966.352 2088.07 860.425 2088.07 729.757C2088.07 599.089 2194.61 493.162 2326.04 493.162C2368.86 493.162 2409.05 504.411 2443.77 524.099V333.771C2443.77 300.761 2470.68 274 2503.88 274C2537.08 274 2564 300.761 2564 333.771V906.581ZM2443.77 729.757C2443.77 794.403 2391.06 846.809 2326.04 846.809C2261.02 846.809 2208.31 794.403 2208.31 729.757C2208.31 665.111 2261.02 612.705 2326.04 612.705C2391.06 612.705 2443.77 665.111 2443.77 729.757Z" fill="#FFB000"/>
<path d="M2426.23 1118.98C2388.59 1118.98 2358.07 1148.77 2358.07 1185.51V1285.67C2358.07 1304.63 2342.49 1320 2323.27 1320C2304.05 1320 2288.46 1304.63 2288.46 1285.67V1086.78C2288.46 1067.82 2304.05 1052.44 2323.27 1052.44C2336.69 1052.44 2348.33 1059.94 2354.14 1070.91C2360.31 1067.21 2366.79 1063.98 2373.51 1061.27C2390.23 1054.51 2408.14 1051.03 2426.23 1051.03C2444.32 1051.03 2462.24 1054.51 2478.95 1061.27C2495.67 1068.02 2510.86 1077.93 2523.65 1090.42C2536.44 1102.91 2546.59 1117.73 2553.51 1134.05C2559.3 1147.69 2562.74 1162.14 2563.71 1176.84C2563.9 1178.29 2564 1179.77 2564 1181.27V1285.67C2564 1304.63 2548.42 1320 2529.2 1320C2509.97 1320 2494.39 1304.63 2494.39 1285.67V1185.51C2494.39 1148.77 2463.88 1118.98 2426.23 1118.98Z" fill="#292A2E"/>
<path d="M2053.08 1070.91C2047.31 1059.94 2035.75 1052.44 2022.43 1052.44C2003.35 1052.44 1987.88 1067.82 1987.88 1086.78L1987.88 1185.49C1987.88 1185.5 1987.88 1185.5 1987.88 1185.51L1987.88 1285.67C1987.88 1304.63 2003.35 1320 2022.43 1320C2041.51 1320 2056.98 1304.63 2056.98 1285.67V1185.51C2056.98 1148.77 2087.27 1118.98 2124.64 1118.98C2145.76 1118.98 2164.62 1128.49 2177.03 1143.4L2177.09 1143.35C2183.43 1150.94 2193.05 1155.79 2203.82 1155.79C2222.9 1155.79 2238.37 1140.57 2238.37 1121.81C2238.37 1112.62 2234.65 1104.28 2228.62 1098.16C2210.97 1077.84 2187.54 1063.13 2161.31 1055.95C2134.13 1048.51 2105.27 1049.52 2078.69 1058.85C2069.7 1062 2061.12 1066.05 2053.08 1070.91Z" fill="#292A2E"/>
<path fill-rule="evenodd" clip-rule="evenodd" d="M1871.56 1300.46C1850.71 1312.86 1826.21 1320 1800.01 1320C1723.92 1320 1662.24 1259.79 1662.24 1185.51C1662.24 1111.24 1723.92 1051.03 1800.01 1051.03C1826.44 1051.03 1851.14 1058.29 1872.11 1070.89C1877.92 1059.93 1889.56 1052.44 1902.98 1052.44C1922.2 1052.44 1937.78 1067.82 1937.78 1086.78V1285.67C1937.78 1304.63 1922.2 1320 1902.98 1320C1889.12 1320 1877.16 1312.02 1871.56 1300.46ZM1868.17 1185.51C1868.17 1222.26 1837.66 1252.05 1800.01 1252.05C1762.37 1252.05 1731.85 1222.26 1731.85 1185.51C1731.85 1148.77 1762.37 1118.98 1800.01 1118.98C1837.66 1118.98 1868.17 1148.77 1868.17 1185.51Z" fill="#292A2E"/>
<path fill-rule="evenodd" clip-rule="evenodd" d="M1556.28 1297.06C1583.18 1278.96 1602.68 1251.82 1611.08 1220.55C1613.2 1212.26 1612.21 1203.17 1607.59 1195.18C1598.21 1178.95 1577.43 1173.4 1561.18 1182.76C1553.24 1187.34 1547.76 1194.61 1545.42 1202.77C1541.04 1219.26 1530.34 1234.07 1514.37 1243.27C1488.08 1258.42 1455.73 1253.62 1434.92 1233.58L1558.77 1162.2C1578.57 1150.78 1608 1133.82 1575.8 1090.37C1570.48 1083.2 1564.39 1077.37 1550.82 1068.87C1523.34 1051.67 1492.29 1048.1 1460.25 1053.12C1428.21 1058.14 1399.07 1074.55 1378.19 1099.33C1357.31 1124.11 1346.11 1155.59 1346.65 1187.97C1346.83 1198.83 1348.3 1209.57 1351.03 1219.93C1354.01 1231.2 1358.52 1242.28 1364.64 1252.86L1364.74 1253.03C1367.83 1258.37 1371.24 1263.42 1374.93 1268.16C1376.89 1270.68 1378.96 1273.12 1381.11 1275.51C1402.8 1299.59 1432.47 1315.03 1464.66 1318.99C1496.85 1322.95 1529.39 1315.16 1556.28 1297.06ZM1415.39 1175.36C1418.43 1156.26 1429.76 1138.65 1447.84 1128.22C1465.92 1117.8 1486.87 1116.82 1504.95 1123.74L1415.39 1175.36Z" fill="#292A2E"/>
<path d="M1150.65 991.257C1150.65 972.495 1135.08 957.286 1115.88 957.286C1096.68 957.286 1081.11 972.495 1081.11 991.257V1286.03C1081.11 1303.62 1094.79 1318.08 1112.32 1319.82C1113.49 1319.94 1114.68 1320 1115.88 1320H1286.81C1306.02 1320 1321.58 1304.79 1321.58 1286.03C1321.58 1267.27 1306.02 1252.06 1286.81 1252.06H1176.72C1162.32 1252.06 1150.65 1240.65 1150.65 1226.58V991.257Z" fill="#292A2E"/>
</g>
<defs>
<clipPath id="clip0_15_44">
<rect width="3072" height="1728" fill="white"/>
</clipPath>
</defs>
</svg>
