<svg width="32" height="32" viewBox="0 0 32 32" fill="none" xmlns="http://www.w3.org/2000/svg">
<path d="M12 28H20M24 11.4667C24 9.48638 23.1571 7.58721 21.6568 6.18694C20.1565 4.78666 18.1217 4 16 4C13.8782 4 11.8434 4.78666 10.3431 6.18694C8.84281 7.58721 7.99996 9.48638 7.99996 11.4667C7.99996 15.0483 7.09836 17.5781 6.03657 19.3154C5.00817 20.9982 4.49397 21.8395 4.51309 22.0581C4.53456 22.3036 4.58301 22.39 4.78133 22.5364C4.95784 22.6667 5.79679 22.6667 7.47469 22.6667H24.5252C26.2031 22.6667 27.0421 22.6667 27.2186 22.5364C27.4169 22.39 27.4654 22.3036 27.4868 22.0581C27.5059 21.8395 26.9917 20.9982 25.9634 19.3154C24.9016 17.5781 24 15.0483 24 11.4667Z" stroke="#26272B" stroke-width="3" stroke-linecap="round" stroke-linejoin="round"/>
</svg>
