<svg width="26" height="26" viewBox="0 0 26 26" fill="none" xmlns="http://www.w3.org/2000/svg">
<path d="M8.99996 25H17M21 8.46667C21 6.48638 20.1571 4.58721 18.6568 3.18694C17.1565 1.78666 15.1217 1 13 1C10.8782 1 8.8434 1.78666 7.3431 3.18694C5.84281 4.58721 4.99996 6.48638 4.99996 8.46667C4.99996 12.0483 4.09836 14.5781 3.03657 16.3154C2.00817 17.9982 1.49397 18.8395 1.51309 19.0581C1.53456 19.3036 1.58301 19.39 1.78133 19.5364C1.95784 19.6667 2.79679 19.6667 4.47469 19.6667H21.5252C23.2031 19.6667 24.0421 19.6667 24.2186 19.5364C24.4169 19.39 24.4654 19.3036 24.4868 19.0581C24.5059 18.8395 23.9917 17.9982 22.9634 16.3154C21.9016 14.5781 21 12.0483 21 8.46667Z" stroke="#26272B" stroke-width="2" stroke-linecap="round" stroke-linejoin="round"/>
</svg>
