<svg width="32" height="32" viewBox="0 0 32 32" fill="none" xmlns="http://www.w3.org/2000/svg">
<path d="M8.39969 6.66667H28L25.3333 16H9.83562M26.6667 21.3333H10.6667L8 4H4M12 26.6667C12 27.403 11.403 28 10.6667 28C9.93029 28 9.33333 27.403 9.33333 26.6667C9.33333 25.9303 9.93029 25.3333 10.6667 25.3333C11.403 25.3333 12 25.9303 12 26.6667ZM26.6667 26.6667C26.6667 27.403 26.0697 28 25.3333 28C24.597 28 24 27.403 24 26.6667C24 25.9303 24.597 25.3333 25.3333 25.3333C26.0697 25.3333 26.6667 25.9303 26.6667 26.6667Z" stroke="#26272B" stroke-width="3" stroke-linecap="round" stroke-linejoin="round"/>
</svg>
