<svg width="16" height="16" viewBox="0 0 16 16" fill="none" xmlns="http://www.w3.org/2000/svg">
<path fill-rule="evenodd" clip-rule="evenodd" d="M11.9813 1.52278C12.1016 2.19243 11.6292 2.82822 10.9261 2.94285L10.2874 3.04698C11.2748 3.73248 11.9165 4.84255 11.9165 6.09535C11.9165 7.21592 11.4031 8.2223 10.5882 8.9128C11.0334 9.28979 11.3854 9.75924 11.6152 10.2876C11.9147 10.9764 11.9931 11.7344 11.8404 12.4656C11.6877 13.1969 11.3107 13.8686 10.7571 14.3958C10.2036 14.9231 9.49826 15.2821 8.73044 15.4276C7.96262 15.573 7.16675 15.4984 6.44348 15.213C5.72021 14.9277 5.10202 14.4445 4.66708 13.8246C4.23215 13.2046 4 12.4758 4 11.7302H4.00085C4.00029 11.717 4 11.7038 4 11.6905C4 11.1645 4.4477 10.7381 4.99997 10.7381C5.55224 10.7381 5.99995 11.1645 5.99995 11.6905C5.99995 11.7038 5.99966 11.717 5.9991 11.7302H5.99995C5.99995 12.7602 6.8767 13.5953 7.95823 13.5953C9.03976 13.5953 9.91651 12.7602 9.91651 11.7302C9.91651 10.7022 9.04328 9.8685 7.96475 9.86515L7.95823 9.86515C5.77216 9.86515 4 8.17735 4 6.09535C4 4.01335 5.77216 2.32555 7.95823 2.32555C8.52938 2.32555 9.07228 2.44076 9.5627 2.64811L9.43504 1.93791C9.31468 1.26826 9.7871 0.632469 10.4902 0.517836C11.1933 0.403203 11.8609 0.853133 11.9813 1.52278ZM7.96473 7.9604C9.04327 7.95706 9.91651 7.12333 9.91651 6.09535C9.91651 5.06531 9.03976 4.23029 7.95823 4.23029C6.8767 4.23029 5.99995 5.06531 5.99995 6.09535C5.99995 7.12539 6.8767 7.96041 7.95823 7.96041L7.96473 7.9604Z" fill="#FFB000"/>
</svg>
