<svg width="32" height="32" viewBox="0 0 32 32" fill="none" xmlns="http://www.w3.org/2000/svg">
<circle cx="16" cy="16" r="16" fill="#FEC431"/>
<path d="M16.8002 17.08C16.8002 18.8581 16.2984 20.267 15.2949 21.3067C14.2913 22.3404 12.9261 22.8572 11.1991 22.8572C9.32034 22.8572 7.84129 22.2327 6.7619 20.9837C5.68251 19.7348 5.14282 18.0213 5.14282 15.8433C5.14282 13.6961 5.68251 11.9949 6.7619 10.7398C7.84129 9.48473 9.29992 8.85718 11.1378 8.85718C12.6314 8.85718 13.8829 9.27555 14.8923 10.1123C15.9017 10.949 16.4997 12.0596 16.6864 13.4439H14.0609C13.8625 12.7671 13.5095 12.2441 13.0019 11.875C12.4943 11.4997 11.8729 11.312 11.1378 11.312C10.1167 11.312 9.31158 11.715 8.7223 12.521C8.13885 13.3208 7.84712 14.419 7.84712 15.8156C7.84712 17.2369 8.15052 18.3566 8.75731 19.1749C9.36993 19.9932 10.1984 20.4023 11.2428 20.4023C12.1063 20.4023 12.8123 20.1562 13.3607 19.664C13.9092 19.1718 14.198 18.5227 14.2272 17.7168L14.2359 17.4768H11.4966V15.3819H16.8002V17.08Z" fill="white"/>
<path d="M27.1428 20.0886V22.5157H18.8811V9.19864H21.5242V20.0886H27.1428Z" fill="white"/>
</svg>
