<svg width="42" height="42" viewBox="0 0 42 42" fill="none" xmlns="http://www.w3.org/2000/svg">
<path d="M11.2621 9.04167H36.375L32.9583 21H13.1019M34.6667 27.8333H14.1667L10.75 5.625H5.625M15.875 34.6667C15.875 35.6102 15.1102 36.375 14.1667 36.375C13.2232 36.375 12.4583 35.6102 12.4583 34.6667C12.4583 33.7232 13.2232 32.9583 14.1667 32.9583C15.1102 32.9583 15.875 33.7232 15.875 34.6667ZM34.6667 34.6667C34.6667 35.6102 33.9018 36.375 32.9583 36.375C32.0148 36.375 31.25 35.6102 31.25 34.6667C31.25 33.7232 32.0148 32.9583 32.9583 32.9583C33.9018 32.9583 34.6667 33.7232 34.6667 34.6667Z" stroke="#26272B" stroke-width="3" stroke-linecap="round" stroke-linejoin="round"/>
</svg>
