<svg width="169" height="23" viewBox="0 0 169 23" fill="none" xmlns="http://www.w3.org/2000/svg">
<path d="M8.5 18.5483C12.6421 18.5483 16 15.1905 16 11.0483C16 6.9062 12.6421 3.54834 8.5 3.54834C4.35786 3.54834 1 6.9062 1 11.0483C1 15.1905 4.35786 18.5483 8.5 18.5483Z" stroke="white" stroke-width="1.8" stroke-linecap="round" stroke-linejoin="round"/>
<path d="M11.5 8.65465C11.1632 7.9684 10.1526 6.76803 8.13133 6.9394C6.11008 7.11115 4.59396 8.99815 4.76271 11.3993C4.93146 13.8008 6.78396 15.1729 8.46808 15.1729C10.4893 15.1729 11.5 13.5263 11.5 13.5263" stroke="white" stroke-width="1.8" stroke-linecap="round" stroke-linejoin="round"/>
<path d="M25.1634 18.0483V16.3353L29.7081 11.88C30.1428 11.4411 30.505 11.0512 30.7947 10.7103C31.0845 10.3694 31.3018 10.0391 31.4467 9.7195C31.5916 9.3999 31.6641 9.05899 31.6641 8.69678C31.6641 8.28342 31.5703 7.92973 31.3828 7.6357C31.1953 7.3374 30.9375 7.10729 30.6094 6.94536C30.2812 6.78342 29.9084 6.70246 29.4908 6.70246C29.0604 6.70246 28.6832 6.79195 28.3594 6.97092C28.0355 7.14564 27.7841 7.39493 27.6051 7.71879C27.4304 8.04266 27.343 8.42831 27.343 8.87575H25.0866C25.0866 8.04479 25.2763 7.32249 25.6555 6.70885C26.0348 6.09521 26.5568 5.62007 27.2216 5.28342C27.8906 4.94678 28.6577 4.77845 29.5227 4.77845C30.4006 4.77845 31.1719 4.94252 31.8366 5.27064C32.5014 5.59877 33.017 6.04834 33.3835 6.61936C33.7543 7.19038 33.9396 7.84237 33.9396 8.57533C33.9396 9.06539 33.8459 9.54692 33.6584 10.0199C33.4709 10.4929 33.1406 11.0171 32.6676 11.5924C32.1989 12.1677 31.5405 12.8644 30.6925 13.6826L28.4361 15.9773V16.0668H34.1378V18.0483H25.1634ZM41.1818 18.2976C40.1293 18.2976 39.2259 18.0313 38.4716 17.4986C37.7216 16.9617 37.1442 16.1883 36.7393 15.1783C36.3388 14.1641 36.1385 12.9432 36.1385 11.5157C36.1428 10.0881 36.3452 8.87362 36.7457 7.8722C37.1506 6.86652 37.728 6.09948 38.478 5.57107C39.2322 5.04266 40.1335 4.77845 41.1818 4.77845C42.2301 4.77845 43.1314 5.04266 43.8857 5.57107C44.6399 6.09948 45.2173 6.86652 45.6179 7.8722C46.0227 8.87789 46.2251 10.0924 46.2251 11.5157C46.2251 12.9475 46.0227 14.1705 45.6179 15.1847C45.2173 16.1946 44.6399 16.966 43.8857 17.4986C43.1357 18.0313 42.2344 18.2976 41.1818 18.2976ZM41.1818 16.2969C42 16.2969 42.6456 15.8942 43.1186 15.0888C43.5959 14.2792 43.8345 13.0881 43.8345 11.5157C43.8345 10.4759 43.7259 9.60232 43.5085 8.89493C43.2912 8.18754 42.9844 7.65487 42.5881 7.29692C42.1918 6.9347 41.723 6.7536 41.1818 6.7536C40.3679 6.7536 39.7244 7.15842 39.2514 7.96808C38.7784 8.77348 38.5398 9.95601 38.5355 11.5157C38.5313 12.5597 38.6357 13.4375 38.8487 14.1492C39.0661 14.8608 39.3729 15.3978 39.7692 15.76C40.1655 16.1179 40.6364 16.2969 41.1818 16.2969ZM48.3489 18.0483V16.3353L52.8936 11.88C53.3283 11.4411 53.6905 11.0512 53.9803 10.7103C54.2701 10.3694 54.4874 10.0391 54.6323 9.7195C54.7772 9.3999 54.8496 9.05899 54.8496 8.69678C54.8496 8.28342 54.7559 7.92973 54.5684 7.6357C54.3809 7.3374 54.123 7.10729 53.7949 6.94536C53.4668 6.78342 53.0939 6.70246 52.6763 6.70246C52.2459 6.70246 51.8688 6.79195 51.5449 6.97092C51.2211 7.14564 50.9696 7.39493 50.7907 7.71879C50.6159 8.04266 50.5286 8.42831 50.5286 8.87575H48.2722C48.2722 8.04479 48.4618 7.32249 48.8411 6.70885C49.2203 6.09521 49.7424 5.62007 50.4071 5.28342C51.0762 4.94678 51.8432 4.77845 52.7083 4.77845C53.5861 4.77845 54.3574 4.94252 55.0222 5.27064C55.687 5.59877 56.2026 6.04834 56.5691 6.61936C56.9398 7.19038 57.1252 7.84237 57.1252 8.57533C57.1252 9.06539 57.0314 9.54692 56.8439 10.0199C56.6564 10.4929 56.3262 11.0171 55.8532 11.5924C55.3844 12.1677 54.726 12.8644 53.878 13.6826L51.6216 15.9773V16.0668H57.3233V18.0483H48.3489ZM64.2267 18.2273C63.3063 18.2273 62.4881 18.0696 61.7722 17.7543C61.0605 17.439 60.498 17 60.0847 16.4375C59.6713 15.875 59.4519 15.2252 59.4263 14.488H61.8297C61.851 14.8417 61.9682 15.1506 62.1813 15.4148C62.3944 15.6748 62.6777 15.8772 63.0314 16.0221C63.3851 16.1669 63.7814 16.2394 64.2203 16.2394C64.6891 16.2394 65.1046 16.1584 65.4668 15.9965C65.829 15.8303 66.1124 15.6002 66.3169 15.3062C66.5215 15.0121 66.6216 14.6733 66.6174 14.2898C66.6216 13.8935 66.5194 13.5441 66.3105 13.2415C66.1017 12.939 65.7992 12.7025 65.4029 12.532C65.0108 12.3615 64.5378 12.2763 63.9838 12.2763H62.8269V10.4482H63.9838C64.4398 10.4482 64.8382 10.3694 65.1792 10.2117C65.5243 10.054 65.7949 9.83243 65.9909 9.54692C66.187 9.25715 66.2828 8.92263 66.2786 8.54337C66.2828 8.17263 66.1998 7.8509 66.0293 7.57817C65.8631 7.30118 65.6266 7.08598 65.3198 6.93257C65.0172 6.77916 64.6614 6.70246 64.2523 6.70246C63.8517 6.70246 63.481 6.7749 63.1401 6.91979C62.7992 7.06467 62.5243 7.27135 62.3155 7.53982C62.1067 7.80402 61.9959 8.11936 61.9831 8.48584H59.7012C59.7182 7.75289 59.9292 7.10942 60.334 6.55544C60.7431 5.9972 61.2885 5.56254 61.9703 5.25146C62.6522 4.93612 63.4171 4.77845 64.2651 4.77845C65.1387 4.77845 65.8972 4.94252 66.5407 5.27064C67.1884 5.5945 67.6891 6.03129 68.0428 6.58101C68.3965 7.13073 68.5733 7.73797 68.5733 8.40274C68.5776 9.13996 68.3603 9.75786 67.9213 10.2564C67.4867 10.755 66.9157 11.081 66.2083 11.2344V11.3367C67.1287 11.4645 67.834 11.8054 68.324 12.3594C68.8184 12.9091 69.0634 13.5931 69.0591 14.4113C69.0591 15.1442 68.8503 15.8005 68.4327 16.38C68.0194 16.9553 67.4483 17.407 66.7196 17.7351C65.9952 18.0633 65.1642 18.2273 64.2267 18.2273ZM80.0135 21.9347C79.1825 21.9347 78.4688 21.8218 77.8722 21.5959C77.2756 21.3743 76.7962 21.076 76.4339 20.701C76.0717 20.326 75.8203 19.9106 75.6797 19.4546L77.7635 18.9496C77.8572 19.1414 77.9936 19.331 78.1726 19.5185C78.3516 19.7103 78.5923 19.8679 78.8949 19.9915C79.2017 20.1194 79.5874 20.1833 80.0518 20.1833C80.7081 20.1833 81.2514 20.0235 81.6818 19.7039C82.1122 19.3885 82.3274 18.8687 82.3274 18.1442V16.2841H82.2124C82.093 16.5228 81.9183 16.7678 81.6882 17.0192C81.4624 17.2706 81.1619 17.4816 80.7869 17.652C80.4162 17.8225 79.9496 17.9077 79.3871 17.9077C78.6328 17.9077 77.9489 17.7309 77.3352 17.3772C76.7259 17.0192 76.2401 16.4866 75.8778 15.7792C75.5199 15.0675 75.3409 14.1769 75.3409 13.1073C75.3409 12.0292 75.5199 11.1194 75.8778 10.3779C76.2401 9.63215 76.728 9.06752 77.3416 8.68399C77.9553 8.29621 78.6392 8.10232 79.3935 8.10232C79.9688 8.10232 80.4418 8.20033 80.8125 8.39635C81.1875 8.58811 81.4858 8.82036 81.7074 9.09308C81.929 9.36155 82.0973 9.6151 82.2124 9.85374H82.3402V8.23016H84.6222V18.2081C84.6222 19.0476 84.4219 19.7422 84.0213 20.2919C83.6207 20.8417 83.0732 21.2529 82.3786 21.5256C81.6839 21.7983 80.8956 21.9347 80.0135 21.9347ZM80.0327 16.0924C80.5227 16.0924 80.9403 15.9731 81.2855 15.7344C81.6307 15.4958 81.8928 15.1527 82.0717 14.7053C82.2507 14.2579 82.3402 13.7209 82.3402 13.0945C82.3402 12.4766 82.2507 11.9354 82.0717 11.4709C81.897 11.0064 81.6371 10.6464 81.2919 10.3907C80.951 10.1307 80.5313 10.0008 80.0327 10.0008C79.517 10.0008 79.0866 10.135 78.7415 10.4035C78.3963 10.6719 78.1364 11.0405 77.9616 11.5093C77.7869 11.9738 77.6996 12.5022 77.6996 13.0945C77.6996 13.6954 77.7869 14.2216 77.9616 14.6733C78.1406 15.1208 78.4027 15.4702 78.7479 15.7216C79.0973 15.9688 79.5256 16.0924 80.0327 16.0924ZM91.2763 18.2401C90.3175 18.2401 89.4865 18.0292 88.7834 17.6073C88.0803 17.1854 87.5348 16.5952 87.147 15.8367C86.7635 15.0782 86.5717 14.1918 86.5717 13.1776C86.5717 12.1634 86.7635 11.2749 87.147 10.5121C87.5348 9.74933 88.0803 9.157 88.7834 8.73513C89.4865 8.31325 90.3175 8.10232 91.2763 8.10232C92.2351 8.10232 93.0661 8.31325 93.7692 8.73513C94.4723 9.157 95.0156 9.74933 95.3991 10.5121C95.7869 11.2749 95.9808 12.1634 95.9808 13.1776C95.9808 14.1918 95.7869 15.0782 95.3991 15.8367C95.0156 16.5952 94.4723 17.1854 93.7692 17.6073C93.0661 18.0292 92.2351 18.2401 91.2763 18.2401ZM91.2891 16.3864C91.8089 16.3864 92.2436 16.2437 92.593 15.9581C92.9425 15.6684 93.2024 15.2806 93.3729 14.7948C93.5476 14.309 93.6349 13.7678 93.6349 13.1712C93.6349 12.5704 93.5476 12.027 93.3729 11.5412C93.2024 11.0512 92.9425 10.6613 92.593 10.3715C92.2436 10.0817 91.8089 9.93683 91.2891 9.93683C90.7564 9.93683 90.3132 10.0817 89.9595 10.3715C89.6101 10.6613 89.348 11.0512 89.1733 11.5412C89.0028 12.027 88.9176 12.5704 88.9176 13.1712C88.9176 13.7678 89.0028 14.309 89.1733 14.7948C89.348 15.2806 89.6101 15.6684 89.9595 15.9581C90.3132 16.2437 90.7564 16.3864 91.2891 16.3864ZM102.227 18.2401C101.269 18.2401 100.438 18.0292 99.7346 17.6073C99.0314 17.1854 98.486 16.5952 98.0982 15.8367C97.7147 15.0782 97.5229 14.1918 97.5229 13.1776C97.5229 12.1634 97.7147 11.2749 98.0982 10.5121C98.486 9.74933 99.0314 9.157 99.7346 8.73513C100.438 8.31325 101.269 8.10232 102.227 8.10232C103.186 8.10232 104.017 8.31325 104.72 8.73513C105.423 9.157 105.967 9.74933 106.35 10.5121C106.738 11.2749 106.932 12.1634 106.932 13.1776C106.932 14.1918 106.738 15.0782 106.35 15.8367C105.967 16.5952 105.423 17.1854 104.72 17.6073C104.017 18.0292 103.186 18.2401 102.227 18.2401ZM102.24 16.3864C102.76 16.3864 103.195 16.2437 103.544 15.9581C103.894 15.6684 104.154 15.2806 104.324 14.7948C104.499 14.309 104.586 13.7678 104.586 13.1712C104.586 12.5704 104.499 12.027 104.324 11.5412C104.154 11.0512 103.894 10.6613 103.544 10.3715C103.195 10.0817 102.76 9.93683 102.24 9.93683C101.708 9.93683 101.264 10.0817 100.911 10.3715C100.561 10.6613 100.299 11.0512 100.124 11.5412C99.954 12.027 99.8688 12.5704 99.8688 13.1712C99.8688 13.7678 99.954 14.309 100.124 14.7948C100.299 15.2806 100.561 15.6684 100.911 15.9581C101.264 16.2437 101.708 16.3864 102.24 16.3864ZM112.539 18.2209C111.768 18.2209 111.078 18.0228 110.468 17.6265C109.859 17.2302 109.377 16.6549 109.024 15.9006C108.67 15.1464 108.493 14.2302 108.493 13.152C108.493 12.0611 108.672 11.1407 109.03 10.3907C109.392 9.63641 109.88 9.06752 110.494 8.68399C111.108 8.29621 111.792 8.10232 112.546 8.10232C113.121 8.10232 113.594 8.20033 113.965 8.39635C114.336 8.58811 114.63 8.82036 114.847 9.09308C115.064 9.36155 115.233 9.6151 115.352 9.85374H115.448V4.95743H117.768V18.0483H115.493V16.5015H115.352C115.233 16.7401 115.06 16.9937 114.834 17.2621C114.608 17.5263 114.31 17.7522 113.939 17.9397C113.569 18.1272 113.102 18.2209 112.539 18.2209ZM113.185 16.3225C113.675 16.3225 114.093 16.1904 114.438 15.9262C114.783 15.6577 115.045 15.2848 115.224 14.8076C115.403 14.3303 115.493 13.7742 115.493 13.1392C115.493 12.5043 115.403 11.9525 115.224 11.4837C115.049 11.015 114.789 10.6506 114.444 10.3907C114.103 10.1307 113.684 10.0008 113.185 10.0008C112.669 10.0008 112.239 10.135 111.894 10.4035C111.549 10.6719 111.289 11.0427 111.114 11.5157C110.939 11.9887 110.852 12.5299 110.852 13.1392C110.852 13.7529 110.939 14.3005 111.114 14.782C111.293 15.2593 111.555 15.6364 111.9 15.9134C112.25 16.1861 112.678 16.3225 113.185 16.3225ZM120.336 18.0483V4.95743H122.708V16.0604H128.473V18.0483H120.336ZM134.776 18.2401C133.791 18.2401 132.941 18.0356 132.225 17.6265C131.514 17.2131 130.966 16.6293 130.583 15.875C130.199 15.1165 130.007 14.2238 130.007 13.1968C130.007 12.1868 130.199 11.3005 130.583 10.5377C130.97 9.77064 131.512 9.17405 132.206 8.74791C132.901 8.31752 133.717 8.10232 134.654 8.10232C135.259 8.10232 135.83 8.20033 136.367 8.39635C136.909 8.58811 137.386 8.88641 137.799 9.29124C138.217 9.69607 138.545 10.2117 138.784 10.8381C139.022 11.4603 139.142 12.2017 139.142 13.0625V13.7721H131.094V12.2124H136.923C136.919 11.7692 136.823 11.375 136.636 11.0299C136.448 10.6804 136.186 10.4056 135.85 10.2053C135.517 10.005 135.129 9.90487 134.686 9.90487C134.213 9.90487 133.798 10.0199 133.44 10.25C133.082 10.4759 132.803 10.7742 132.602 11.1449C132.406 11.5114 132.306 11.9141 132.302 12.353V13.7145C132.302 14.2856 132.406 14.7756 132.615 15.1847C132.824 15.5895 133.116 15.9006 133.491 16.1179C133.866 16.331 134.305 16.4375 134.808 16.4375C135.144 16.4375 135.449 16.3907 135.722 16.2969C135.994 16.1989 136.231 16.0562 136.431 15.8687C136.632 15.6812 136.783 15.4489 136.885 15.1719L139.046 15.4148C138.909 15.9858 138.649 16.4844 138.266 16.9106C137.887 17.3324 137.401 17.6606 136.808 17.8949C136.216 18.125 135.539 18.2401 134.776 18.2401ZM143.924 18.2465C143.302 18.2465 142.742 18.1357 142.243 17.9141C141.749 17.6883 141.357 17.3559 141.067 16.9169C140.782 16.478 140.639 15.9368 140.639 15.2934C140.639 14.7394 140.741 14.2813 140.946 13.9191C141.15 13.5569 141.429 13.2671 141.783 13.0498C142.137 12.8324 142.535 12.6684 142.978 12.5576C143.426 12.4425 143.888 12.3594 144.365 12.3083C144.941 12.2486 145.407 12.1954 145.765 12.1485C146.123 12.0973 146.383 12.0206 146.545 11.9184C146.711 11.8118 146.794 11.6478 146.794 11.4262V11.3878C146.794 10.9063 146.652 10.5334 146.366 10.2692C146.081 10.005 145.669 9.87291 145.132 9.87291C144.566 9.87291 144.116 9.99649 143.784 10.2437C143.456 10.4908 143.234 10.7827 143.119 11.1194L140.958 10.8125C141.129 10.216 141.41 9.71737 141.802 9.31681C142.194 8.91198 142.674 8.60942 143.24 8.40914C143.807 8.20459 144.434 8.10232 145.12 8.10232C145.593 8.10232 146.064 8.15771 146.532 8.26851C147.001 8.37931 147.429 8.56254 147.817 8.81823C148.205 9.06965 148.516 9.41269 148.75 9.84735C148.989 10.282 149.108 10.8253 149.108 11.4773V18.0483H146.884V16.6996H146.807C146.667 16.9723 146.468 17.228 146.213 17.4667C145.961 17.701 145.644 17.8907 145.26 18.0356C144.881 18.1762 144.436 18.2465 143.924 18.2465ZM144.525 16.5462C144.99 16.5462 145.392 16.4546 145.733 16.2714C146.074 16.0839 146.336 15.8367 146.52 15.5299C146.707 15.2231 146.801 14.8885 146.801 14.5263V13.3694C146.728 13.429 146.605 13.4844 146.43 13.5356C146.26 13.5867 146.068 13.6314 145.855 13.6698C145.642 13.7081 145.431 13.7422 145.222 13.7721C145.013 13.8019 144.832 13.8275 144.679 13.8488C144.333 13.8956 144.025 13.9723 143.752 14.0789C143.479 14.1854 143.264 14.3346 143.106 14.5263C142.949 14.7138 142.87 14.9567 142.87 15.255C142.87 15.6812 143.025 16.0029 143.336 16.2202C143.647 16.4375 144.044 16.5462 144.525 16.5462ZM151.435 18.0483V8.23016H153.679V9.86652H153.781C153.96 9.29976 154.267 8.86297 154.701 8.55615C155.14 8.24507 155.641 8.08953 156.203 8.08953C156.331 8.08953 156.474 8.09592 156.632 8.10871C156.794 8.11723 156.928 8.13215 157.034 8.15345V10.282C156.936 10.2479 156.781 10.2181 156.568 10.1925C156.359 10.1627 156.157 10.1478 155.961 10.1478C155.539 10.1478 155.159 10.2394 154.823 10.4226C154.49 10.6016 154.228 10.8509 154.037 11.1705C153.845 11.4901 153.749 11.8587 153.749 12.2763V18.0483H151.435ZM160.886 12.2955V18.0483H158.572V8.23016H160.783V9.89848H160.898C161.124 9.34877 161.484 8.91198 161.979 8.58811C162.477 8.26425 163.093 8.10232 163.826 8.10232C164.504 8.10232 165.094 8.2472 165.597 8.53698C166.104 8.82675 166.496 9.24649 166.773 9.79621C167.054 10.3459 167.192 11.0128 167.188 11.7969V18.0483H164.874V12.1549C164.874 11.4986 164.704 10.9851 164.363 10.6144C164.026 10.2437 163.56 10.0583 162.963 10.0583C162.558 10.0583 162.198 10.1478 161.883 10.3267C161.572 10.5015 161.327 10.755 161.148 11.0874C160.973 11.4198 160.886 11.8225 160.886 12.2955Z" fill="white"/>
</svg>
