<svg width="47" height="41" viewBox="0 0 47 41" fill="none" xmlns="http://www.w3.org/2000/svg">
<path d="M13.625 35.625H22.375M26.75 15.475C26.75 13.0615 25.8281 10.7469 24.1872 9.04033C22.5462 7.33375 20.3206 6.375 18 6.375C15.6794 6.375 13.4538 7.33375 11.8128 9.04033C10.1719 10.7469 9.25 13.0615 9.25 15.475C9.25 19.8401 8.26388 22.9233 7.10254 25.0407C5.97773 27.0915 5.41533 28.1169 5.43623 28.3833C5.45972 28.6825 5.51271 28.7878 5.72962 28.9662C5.92268 29.125 6.84028 29.125 8.67549 29.125H27.3245C29.1597 29.125 30.0773 29.125 30.2704 28.9662C30.4873 28.7878 30.5403 28.6825 30.5638 28.3833C30.5847 28.1169 30.0223 27.0915 28.8975 25.0407C27.7361 22.9233 26.75 19.8401 26.75 15.475Z" stroke="#26272B" stroke-width="3" stroke-linecap="round" stroke-linejoin="round"/>
<rect x="20" y="1" width="26" height="15" rx="7.5" fill="#FF3535"/>
<path d="M27.2102 10.6136V6.59091H28.2273V10.6136H27.2102ZM25.7074 9.1108V8.09375H29.7301V9.1108H25.7074ZM33.0142 5.60227C33.3134 5.60227 33.6013 5.65246 33.8778 5.75284C34.1563 5.85322 34.4044 6.01326 34.6222 6.23295C34.8419 6.45265 35.0152 6.74432 35.142 7.10795C35.2708 7.4697 35.3362 7.91383 35.3381 8.44034C35.3381 8.93466 35.2822 9.37595 35.1705 9.7642C35.0606 10.1506 34.9025 10.4792 34.696 10.75C34.4896 11.0208 34.2405 11.2273 33.9489 11.3693C33.6572 11.5095 33.3314 11.5795 32.9716 11.5795C32.5833 11.5795 32.2405 11.5047 31.9432 11.3551C31.6458 11.2036 31.4063 10.9981 31.2244 10.7386C31.0445 10.4773 30.9356 10.1837 30.8977 9.85795H32.1108C32.1581 10.0701 32.2576 10.2348 32.4091 10.3523C32.5606 10.4678 32.7481 10.5256 32.9716 10.5256C33.3504 10.5256 33.6383 10.3608 33.8352 10.0312C34.0322 9.69981 34.1316 9.24621 34.1335 8.67045H34.0938C34.0066 8.84091 33.8892 8.98769 33.7415 9.1108C33.5938 9.23201 33.4242 9.32576 33.233 9.39205C33.0436 9.45833 32.8419 9.49148 32.6278 9.49148C32.285 9.49148 31.9792 9.41098 31.7102 9.25C31.4413 9.08902 31.2292 8.86742 31.0739 8.58523C30.9186 8.30303 30.8409 7.98106 30.8409 7.61932C30.839 7.22917 30.929 6.88163 31.1108 6.5767C31.2926 6.27178 31.5464 6.03314 31.8722 5.8608C32.1998 5.68655 32.5805 5.60038 33.0142 5.60227ZM33.0227 6.56818C32.8314 6.56818 32.661 6.61364 32.5114 6.70455C32.3636 6.79545 32.2462 6.91761 32.1591 7.07102C32.0739 7.22443 32.0322 7.39583 32.0341 7.58523C32.0341 7.77652 32.0758 7.94886 32.1591 8.10227C32.2443 8.25379 32.3598 8.375 32.5057 8.46591C32.6534 8.55492 32.822 8.59943 33.0114 8.59943C33.1534 8.59943 33.285 8.57292 33.4062 8.51989C33.5275 8.46686 33.6326 8.39394 33.7216 8.30114C33.8125 8.20644 33.8835 8.09754 33.9347 7.97443C33.9858 7.85133 34.0114 7.72064 34.0114 7.58239C34.0095 7.39867 33.9659 7.23011 33.8807 7.0767C33.7955 6.9233 33.678 6.80019 33.5284 6.70739C33.3788 6.61458 33.2102 6.56818 33.0227 6.56818ZM38.2955 5.60227C38.5947 5.60227 38.8826 5.65246 39.1591 5.75284C39.4375 5.85322 39.6856 6.01326 39.9034 6.23295C40.1231 6.45265 40.2964 6.74432 40.4233 7.10795C40.5521 7.4697 40.6174 7.91383 40.6193 8.44034C40.6193 8.93466 40.5634 9.37595 40.4517 9.7642C40.3419 10.1506 40.1837 10.4792 39.9773 10.75C39.7708 11.0208 39.5218 11.2273 39.2301 11.3693C38.9384 11.5095 38.6127 11.5795 38.2528 11.5795C37.8646 11.5795 37.5218 11.5047 37.2244 11.3551C36.9271 11.2036 36.6875 10.9981 36.5057 10.7386C36.3258 10.4773 36.2169 10.1837 36.179 9.85795H37.392C37.4394 10.0701 37.5388 10.2348 37.6903 10.3523C37.8419 10.4678 38.0294 10.5256 38.2528 10.5256C38.6316 10.5256 38.9195 10.3608 39.1165 10.0312C39.3134 9.69981 39.4129 9.24621 39.4148 8.67045H39.375C39.2879 8.84091 39.1705 8.98769 39.0227 9.1108C38.875 9.23201 38.7055 9.32576 38.5142 9.39205C38.3248 9.45833 38.1231 9.49148 37.9091 9.49148C37.5663 9.49148 37.2604 9.41098 36.9915 9.25C36.7225 9.08902 36.5104 8.86742 36.3551 8.58523C36.1998 8.30303 36.1222 7.98106 36.1222 7.61932C36.1203 7.22917 36.2102 6.88163 36.392 6.5767C36.5739 6.27178 36.8277 6.03314 37.1534 5.8608C37.4811 5.68655 37.8617 5.60038 38.2955 5.60227ZM38.304 6.56818C38.1127 6.56818 37.9422 6.61364 37.7926 6.70455C37.6449 6.79545 37.5275 6.91761 37.4403 7.07102C37.3551 7.22443 37.3134 7.39583 37.3153 7.58523C37.3153 7.77652 37.357 7.94886 37.4403 8.10227C37.5256 8.25379 37.6411 8.375 37.7869 8.46591C37.9347 8.55492 38.1032 8.59943 38.2926 8.59943C38.4347 8.59943 38.5663 8.57292 38.6875 8.51989C38.8087 8.46686 38.9138 8.39394 39.0028 8.30114C39.0938 8.20644 39.1648 8.09754 39.2159 7.97443C39.267 7.85133 39.2926 7.72064 39.2926 7.58239C39.2907 7.39867 39.2472 7.23011 39.1619 7.0767C39.0767 6.9233 38.9593 6.80019 38.8097 6.70739C38.66 6.61458 38.4915 6.56818 38.304 6.56818Z" fill="white"/>
<rect x="20" y="1" width="26" height="15" rx="7.5" stroke="white" stroke-width="2"/>
</svg>
