<svg width="192" height="45" viewBox="0 0 192 45" fill="none" xmlns="http://www.w3.org/2000/svg">
<path fill-rule="evenodd" clip-rule="evenodd" d="M20.0898 7.10792C20.3927 8.87776 19.2036 10.5581 17.4338 10.8611L15.8261 11.1363C18.3115 12.948 19.9266 15.8818 19.9266 19.1929C19.9266 22.1545 18.6344 24.8142 16.5831 26.6392C17.7039 27.6355 18.5898 28.8763 19.1682 30.2726C19.9223 32.0931 20.1196 34.0964 19.7352 36.0291C19.3507 37.9618 18.4018 39.7371 17.0084 41.1305C15.615 42.5239 13.8397 43.4728 11.9071 43.8572C9.97436 44.2417 7.97107 44.0444 6.15051 43.2903C4.32996 42.5362 2.7739 41.2591 1.67912 39.6207C0.584338 37.9822 0 36.0559 0 34.0854H0.00214532C0.000719754 34.0506 0 34.0156 0 33.9805C0 32.5904 1.12692 31.4634 2.51705 31.4634C3.90717 31.4634 5.03409 32.5904 5.03409 33.9805C5.03409 34.0156 5.03337 34.0506 5.03195 34.0854H5.03409C5.03409 36.8077 7.24098 39.0146 9.96331 39.0146C12.6856 39.0146 14.8925 36.8077 14.8925 34.0854C14.8925 31.3685 12.6945 29.165 9.97973 29.1562L9.96331 29.1562C4.46072 29.1562 0 24.6955 0 19.1929C0 13.6903 4.46072 9.22957 9.96331 9.22957C11.401 9.22957 12.7675 9.53407 14.0019 10.0821L13.6806 8.20506C13.3776 6.43523 14.5668 4.75489 16.3366 4.45192C18.1065 4.14896 19.7868 5.33809 20.0898 7.10792ZM9.97967 24.1221C12.6945 24.1132 14.8925 21.9098 14.8925 19.1929C14.8925 16.4706 12.6856 14.2637 9.96331 14.2637C7.24098 14.2637 5.03409 16.4706 5.03409 19.1929C5.03409 21.9152 7.24098 24.1221 9.96331 24.1221L9.97967 24.1221Z" fill="#FFB000"/>
<path fill-rule="evenodd" clip-rule="evenodd" d="M31.9875 29.1561C37.4901 29.1561 41.9508 24.6954 41.9508 19.1928C41.9508 13.6902 37.4901 9.22949 31.9875 9.22949C26.4849 9.22949 22.0242 13.6902 22.0242 19.1928C22.0242 24.6954 26.4849 29.1561 31.9875 29.1561ZM31.9875 24.122C34.7098 24.122 36.9167 21.9151 36.9167 19.1928C36.9167 16.4705 34.7098 14.2636 31.9875 14.2636C29.2651 14.2636 27.0583 16.4705 27.0583 19.1928C27.0583 21.9151 29.2651 24.122 31.9875 24.122Z" fill="#FFB000"/>
<path fill-rule="evenodd" clip-rule="evenodd" d="M54.0116 29.1561C59.5142 29.1561 63.9749 24.6954 63.9749 19.1928C63.9749 13.6902 59.5142 9.22949 54.0116 9.22949C48.509 9.22949 44.0483 13.6902 44.0483 19.1928C44.0483 24.6954 48.509 29.1561 54.0116 29.1561ZM54.0116 24.122C56.7339 24.122 58.9408 21.9151 58.9408 19.1928C58.9408 16.4705 56.7339 14.2636 54.0116 14.2636C51.2893 14.2636 49.0824 16.4705 49.0824 19.1928C49.0824 21.9151 51.2893 24.122 54.0116 24.122Z" fill="#FFB000"/>
<path fill-rule="evenodd" clip-rule="evenodd" d="M85.9991 26.6387C85.9991 28.0289 84.8722 29.1558 83.482 29.1558C82.4758 29.1558 81.6074 28.5653 81.2046 27.7119C79.6976 28.6281 77.9283 29.1558 76.0358 29.1558C70.5332 29.1558 66.0725 24.6951 66.0725 19.1925C66.0725 13.6899 70.5332 9.22917 76.0358 9.22917C77.8289 9.22917 79.5114 9.70287 80.965 10.532V2.51705C80.965 1.12692 82.0919 0 83.482 0C84.8722 0 85.9991 1.12692 85.9991 2.51705V26.6387ZM80.965 19.1925C80.965 21.9148 78.7581 24.1217 76.0358 24.1217C73.3135 24.1217 71.1066 21.9148 71.1066 19.1925C71.1066 16.4701 73.3135 14.2633 76.0358 14.2633C78.7581 14.2633 80.965 16.4701 80.965 19.1925Z" fill="#FFB000"/>
<path d="M181.752 14.2636C179.029 14.2636 176.822 16.4705 176.822 19.1928V26.6126C176.822 28.0174 175.696 29.1562 174.305 29.1562C172.915 29.1562 171.788 28.0174 171.788 26.6126V11.8779C171.788 10.4732 172.915 9.33437 174.305 9.33437C175.276 9.33437 176.118 9.88938 176.538 10.7024C176.984 10.4284 177.453 10.1893 177.939 9.9879C179.148 9.4872 180.443 9.22949 181.752 9.22949C183.06 9.22949 184.356 9.4872 185.564 9.9879C186.773 10.4886 187.872 11.2225 188.797 12.1477C189.722 13.0729 190.456 14.1712 190.957 15.38C191.375 16.3904 191.624 17.4615 191.694 18.55C191.708 18.6574 191.715 18.767 191.715 18.8782V26.6126C191.715 28.0173 190.588 29.1561 189.198 29.1561C187.808 29.1561 186.681 28.0173 186.681 26.6126V19.1928C186.681 16.4705 184.474 14.2636 181.752 14.2636Z" fill="#F4F3F8"/>
<path d="M156.192 10.7024C155.772 9.88938 154.93 9.33437 153.959 9.33437C152.569 9.33437 151.442 10.4732 151.442 11.8779L151.442 19.1907C151.442 19.1914 151.442 19.1921 151.442 19.1928L151.442 26.6126C151.442 28.0174 152.569 29.1562 153.959 29.1562C155.349 29.1562 156.476 28.0174 156.476 26.6126V19.1928C156.476 16.4705 158.683 14.2636 161.406 14.2636C162.944 14.2636 164.318 14.9686 165.222 16.0731L165.227 16.0691C165.689 16.6316 166.389 16.9904 167.174 16.9904C168.564 16.9904 169.691 15.8635 169.691 14.4733C169.691 13.7924 169.42 13.1746 168.981 12.7215C167.695 11.2158 165.988 10.1262 164.077 9.59433C162.097 9.04315 159.994 9.118 158.058 9.80861C157.403 10.0422 156.778 10.3424 156.192 10.7024Z" fill="#F4F3F8"/>
<path fill-rule="evenodd" clip-rule="evenodd" d="M144.556 27.7088C143.048 28.6271 141.276 29.1561 139.381 29.1561C133.879 29.1561 129.418 24.6954 129.418 19.1928C129.418 13.6902 133.879 9.22949 139.381 9.22949C141.293 9.22949 143.079 9.76783 144.596 10.7012C145.016 9.88881 145.858 9.33437 146.828 9.33437C148.218 9.33437 149.345 10.4732 149.345 11.8779V26.6126C149.345 28.0174 148.218 29.1562 146.828 29.1562C145.826 29.1562 144.961 28.5649 144.556 27.7088ZM144.311 19.1928C144.311 21.9151 142.104 24.122 139.381 24.122C136.659 24.122 134.452 21.9151 134.452 19.1928C134.452 16.4705 136.659 14.2636 139.381 14.2636C142.104 14.2636 144.311 16.4705 144.311 19.1928Z" fill="#F4F3F8"/>
<path fill-rule="evenodd" clip-rule="evenodd" d="M123.218 27.4885C125.21 26.1452 126.655 24.131 127.277 21.8099C127.435 21.1949 127.361 20.5203 127.019 19.9271C126.324 18.7232 124.784 18.3107 123.58 19.0058C122.992 19.3456 122.586 19.8854 122.413 20.4908C122.088 21.7143 121.295 22.8132 120.113 23.4961C118.165 24.6208 115.768 24.2647 114.226 22.7771L123.402 17.4797C124.869 16.6325 127.049 15.3739 124.664 12.1493C124.27 11.6168 123.818 11.1841 122.813 10.5536C120.777 9.27698 118.477 9.01185 116.103 9.38451C113.729 9.75717 111.57 10.9752 110.023 12.8143C108.476 14.6533 107.646 16.9894 107.686 19.3921C107.699 20.1984 107.808 20.9952 108.01 21.764C108.231 22.6008 108.566 23.4225 109.019 24.2081L109.026 24.2207C109.256 24.6169 109.508 24.9914 109.781 25.3434C109.927 25.5303 110.08 25.7119 110.239 25.889C111.846 27.6758 114.044 28.8218 116.429 29.1158C118.814 29.4097 121.225 28.8318 123.218 27.4885ZM112.779 18.4562C113.005 17.039 113.844 15.7318 115.183 14.9585C116.523 14.1851 118.075 14.1119 119.415 14.6253L112.779 18.4562Z" fill="#F4F3F8"/>
<path d="M94.3892 2.51705C94.3892 1.12692 93.2623 0 91.8722 0C90.4821 0 89.3551 1.12692 89.3551 2.51705V26.6387C89.3551 27.942 90.3456 29.0139 91.6148 29.1428C91.6994 29.1514 91.7853 29.1558 91.8722 29.1558H104.248C105.638 29.1558 106.765 28.0289 106.765 26.6387C106.765 25.2486 105.638 24.1217 104.248 24.1217H96.277C95.2344 24.1217 94.3892 23.2765 94.3892 22.2339V2.51705Z" fill="#F4F3F8"/>
</svg>
