<svg width="914" height="210" viewBox="0 0 914 210" fill="none" xmlns="http://www.w3.org/2000/svg">
<path fill-rule="evenodd" clip-rule="evenodd" d="M95.7778 33.8852C97.2222 42.3229 91.553 50.3339 83.1153 51.7783L75.4508 53.0903C87.2999 61.7277 95 75.7147 95 91.5002C95 105.62 88.8396 118.3 79.06 127C84.403 131.751 88.6269 137.666 91.3843 144.323C94.9794 153.002 95.9201 162.553 94.0873 171.767C92.2545 180.981 87.7306 189.445 81.0876 196.088C74.4446 202.731 65.9809 207.255 56.7668 209.087C47.5527 210.92 38.002 209.979 29.3225 206.384C20.643 202.789 13.2246 196.701 8.00519 188.89C2.78583 181.078 0 171.895 0 162.5H0.0102278C0.00343142 162.334 0 162.167 0 162C0 155.373 5.37258 150 12 150C18.6274 150 24 155.373 24 162C24 162.167 23.9966 162.334 23.9898 162.5H24C24 175.479 34.5213 186 47.5 186C60.4787 186 71 175.479 71 162.5C71 149.547 60.521 139.042 47.5783 139L47.5 139C21.2665 139 0 117.734 0 91.5002C0 65.2667 21.2665 44.0002 47.5 44.0002C54.354 44.0002 60.8689 45.4519 66.7541 48.0645L65.2222 39.1159C63.7778 30.6782 69.447 22.6672 77.8847 21.2228C86.3224 19.7784 94.3334 25.4476 95.7778 33.8852ZM47.578 115C60.5208 114.958 71 104.453 71 91.5002C71 78.5215 60.4787 68.0002 47.5 68.0002C34.5213 68.0002 24 78.5215 24 91.5002C24 104.479 34.5213 115 47.5 115L47.578 115Z" fill="#FFB000"/>
<path fill-rule="evenodd" clip-rule="evenodd" d="M152.5 139C178.734 139 200 117.734 200 91.5C200 65.2665 178.734 44 152.5 44C126.266 44 105 65.2665 105 91.5C105 117.734 126.266 139 152.5 139ZM152.5 115C165.479 115 176 104.479 176 91.5C176 78.5213 165.479 68 152.5 68C139.521 68 129 78.5213 129 91.5C129 104.479 139.521 115 152.5 115Z" fill="#FFB000"/>
<path fill-rule="evenodd" clip-rule="evenodd" d="M257.5 139C283.734 139 305 117.734 305 91.5C305 65.2665 283.734 44 257.5 44C231.266 44 210 65.2665 210 91.5C210 117.734 231.266 139 257.5 139ZM257.5 115C270.479 115 281 104.479 281 91.5C281 78.5213 270.479 68 257.5 68C244.521 68 234 78.5213 234 91.5C234 104.479 244.521 115 257.5 115Z" fill="#FFB000"/>
<path fill-rule="evenodd" clip-rule="evenodd" d="M410 127C410 133.627 404.627 139 398 139C393.203 139 389.063 136.185 387.142 132.116C379.958 136.484 371.523 139 362.5 139C336.266 139 315 117.734 315 91.5C315 65.2665 336.266 44 362.5 44C371.049 44 379.07 46.2584 386 50.211V12C386 5.37258 391.373 0 398 0C404.627 0 410 5.37258 410 12V127ZM386 91.5C386 104.479 375.479 115 362.5 115C349.521 115 339 104.479 339 91.5C339 78.5213 349.521 68 362.5 68C375.479 68 386 78.5213 386 91.5Z" fill="#FFB000"/>
<path d="M866.5 68C853.521 68 843 78.5213 843 91.5V126.874C843 133.571 837.627 139 831 139C824.373 139 819 133.571 819 126.874V56.6263C819 49.9291 824.373 44.5 831 44.5C835.627 44.5 839.642 47.146 841.644 51.0222C843.772 49.7156 846.005 48.5757 848.323 47.6157C854.086 45.2286 860.262 44 866.5 44C872.738 44 878.915 45.2286 884.677 47.6157C890.44 50.0028 895.677 53.5016 900.088 57.9124C904.498 62.3232 907.997 67.5596 910.384 73.3225C912.38 78.1397 913.566 83.246 913.901 88.4353C913.966 88.9476 914 89.4698 914 90V126.874C914 133.571 908.627 139 902 139C895.373 139 890 133.571 890 126.874V91.5C890 78.5213 879.479 68 866.5 68Z" fill="#292A2E"/>
<path d="M744.644 51.0222C742.642 47.146 738.627 44.5 734 44.5C727.373 44.5 722 49.9291 722 56.6263L722 91.4901C722 91.4934 722 91.4967 722 91.5L722 126.874C722 133.571 727.373 139 734 139C740.627 139 746 133.571 746 126.874V91.5C746 78.5213 756.521 68 769.5 68C776.836 68 783.386 71.361 787.696 76.6271L787.719 76.6077C789.92 79.2893 793.26 81 797 81C803.627 81 809 75.6274 809 69C809 65.7537 807.711 62.8084 805.617 60.6482C799.485 53.4698 791.347 48.275 782.236 45.7394C772.795 43.1116 762.772 43.4685 753.542 46.761C750.419 47.8747 747.44 49.3058 744.644 51.0222Z" fill="#292A2E"/>
<path fill-rule="evenodd" clip-rule="evenodd" d="M689.169 132.1C681.978 136.478 673.534 139 664.5 139C638.266 139 617 117.734 617 91.5C617 65.2665 638.266 44 664.5 44C673.613 44 682.127 46.5665 689.359 51.0163C691.362 47.1433 695.376 44.5 700 44.5C706.627 44.5 712 49.9291 712 56.6263V126.874C712 133.571 706.627 139 700 139C695.224 139 691.1 136.181 689.169 132.1ZM688 91.5C688 104.479 677.479 115 664.5 115C651.521 115 641 104.479 641 91.5C641 78.5213 651.521 68 664.5 68C677.479 68 688 78.5213 688 91.5Z" fill="#292A2E"/>
<path fill-rule="evenodd" clip-rule="evenodd" d="M587.439 131.05C596.938 124.646 603.829 115.043 606.794 103.977C607.545 101.045 607.194 97.8287 605.561 95.0007C602.248 89.2612 594.909 87.2947 589.169 90.6084C586.363 92.2283 584.428 94.8018 583.601 97.6884C582.054 103.521 578.275 108.76 572.636 112.016C563.349 117.378 551.924 115.68 544.573 108.588L588.317 83.3327C595.313 79.2936 605.705 73.2936 594.333 57.92C592.455 55.3815 590.303 53.3188 585.509 50.3128C575.803 44.2264 564.838 42.9624 553.52 44.739C542.202 46.5157 531.908 52.3228 524.534 61.0904C517.16 69.858 513.203 80.9953 513.393 92.45C513.456 96.294 513.975 100.093 514.939 103.758C515.992 107.748 517.586 111.665 519.748 115.41L519.782 115.47C520.876 117.359 522.08 119.145 523.382 120.823C524.075 121.714 524.806 122.58 525.565 123.424C533.225 131.943 543.706 137.406 555.076 138.808C566.446 140.209 577.94 137.454 587.439 131.05ZM537.675 87.9884C538.749 81.232 542.75 74.9999 549.136 71.3128C555.523 67.6256 562.92 67.2767 569.309 69.7246L537.675 87.9884Z" fill="#292A2E"/>
<path d="M450 12C450 5.37258 444.627 0 438 0C431.373 0 426 5.37258 426 12V127C426 133.213 430.722 138.324 436.773 138.938C437.176 138.979 437.586 139 438 139H497C503.627 139 509 133.627 509 127C509 120.373 503.627 115 497 115H459C454.029 115 450 110.971 450 106V12Z" fill="#292A2E"/>
</svg>
