<svg width="1660" height="1544" viewBox="0 0 1660 1544" fill="none" xmlns="http://www.w3.org/2000/svg">
<path d="M1659.04 471.383C1626.14 978.647 1413.08 1495.18 885.624 1540.38C430.08 1579.42 -81.1532 1298.36 10.8322 898.383C120.513 421.462 711.668 752.445 885.624 265.99C1059.58 -220.465 1687.83 27.5681 1659.04 471.383Z" fill="#FBCC55"/>
<path d="M447.72 402.621C447.72 402.621 364.068 155.1 655.847 185.31C947.626 215.519 808.217 105.963 918.473 37.975C1028.73 -30.0125 1353.59 181.502 1217.68 385.512C1081.77 589.521 1434.88 402.901 1508.54 709.692C1554 899.015 1441.22 1038.36 1348.19 1117.35" stroke="#CCDDE2" stroke-width="2" stroke-miterlimit="10"/>
<path d="M1376.64 880.823C1354.71 753.845 1277.07 640.217 1150.94 599.549C1118.67 589.204 1085.67 581.281 1052.23 575.85V576.021C1050.48 586.562 1046.35 596.566 1040.15 605.267C1027 623.278 1008.89 638.072 987.906 645.78C966.492 653.706 939.965 654.731 920.089 642.268C908.124 634.778 896.515 621.584 894.417 607.35C892.024 591.312 900.198 576.13 911.698 565.532C814.231 566.324 722.545 582.361 649.072 600.621C651.619 611.283 655.145 621.687 659.608 631.701C665.854 645.66 674.679 658.315 685.622 668.997C699.271 655.476 711.221 640.343 721.209 623.931C730.763 627.058 739.188 632.925 745.435 640.803C751.681 648.68 755.476 658.218 756.345 668.235V668.748C760.198 705.127 725.171 732.462 695.739 749.277C661.737 768.826 623.835 783.464 586.601 795.632C571.248 800.667 551.294 804.956 535.086 799.704C533.341 799.148 531.638 798.467 529.989 797.668C513.827 789.743 503.011 773.13 494.573 757.948C470.533 714.824 454.9 667.816 444.301 619.564C370.751 628.966 362.328 579.16 357.961 566.946L295.04 742.843C291.739 755.486 291.383 768.719 293.995 781.522C296.609 794.325 302.124 806.36 310.117 816.698C318.107 827.037 328.364 835.405 340.095 841.161C351.827 846.917 364.723 849.906 377.79 849.898H638.272L756.593 1153.39L790.128 1239.53H981.674C966.134 1239.53 957.634 1235.74 951.465 1229.56C945.093 1223.18 941.507 1214.54 941.488 1205.53C941.488 1186.88 956.795 1171.59 981.674 1171.59H983.431C981.55 1171.59 979.748 1171.42 977.867 1171.25C979.033 1171.12 980.189 1170.93 981.333 1170.67C980.1 1170.65 978.871 1170.55 977.65 1170.4C988.871 1169.07 999.27 1163.84 1007.03 1155.63C1014.79 1147.41 1019.41 1136.73 1020.09 1125.45C1020.12 1124.87 1020.12 1124.28 1020.09 1123.7V1122.8C1019.82 1111.23 1015.4 1100.15 1007.64 1091.58C999.875 1083 989.284 1077.51 977.805 1076.1C979.11 1075.99 980.354 1075.88 981.612 1075.88C980.478 1075.6 979.219 1075.43 978.038 1075.26C979.903 1075.09 981.783 1074.96 983.586 1074.96L1123.73 1075.71L1149.51 1075.82H1180.1C1181.52 1075.82 1182.95 1075.82 1184.3 1075.99L1229.76 1076.22L1260.12 1076.39C1272.81 1076.5 1284.94 1081.63 1293.86 1090.66C1302.78 1099.68 1307.76 1111.88 1307.72 1124.57C1307.7 1131.74 1306.04 1138.82 1302.86 1145.25C1315.88 1143.58 1327.96 1137.56 1337.14 1128.16C1359 1105.83 1368.42 1072.4 1374.93 1042.69C1386.44 989.758 1385.76 933.985 1376.64 880.823ZM1022.58 884.397C996.173 925.034 951.216 921.382 951.216 921.382C951.216 921.382 947.487 925.018 938.784 909.541C930.082 894.063 905.295 883.48 905.295 883.48C903.322 899.02 899.235 922.641 858.675 892.027C818.116 861.413 830.346 816.782 833.811 793.208C837.277 769.634 851.092 761.817 851.092 761.817L867.409 753.208C867.409 753.208 820.214 741.071 817.945 740.621C815.676 740.17 773.641 704.972 816.298 695.679C858.955 686.386 925.451 723.34 938.302 730.644C951.154 737.948 1026.26 801.475 1026.26 801.475C1026.26 801.475 1049.12 843.822 1022.58 884.397Z" fill="#353642"/>
<path d="M444.239 619.592C444.239 619.592 479.81 615.272 493.128 589.88L481.52 655.008C481.52 655.008 623.027 606.834 648.979 600.618C648.979 600.618 657.339 654.526 690.626 668.994L724.969 625.326C724.969 625.326 768.031 636.204 756.251 694.883C744.472 753.562 581.551 802.607 553.921 801.472C526.29 800.338 496.547 783.337 466.089 691.977L444.239 619.592Z" fill="#353642"/>
<path d="M502.188 474.512C511.201 489.182 520.261 503.821 529.616 518.273C535.381 527.177 545.886 539.873 534.713 549.182C531.077 551.97 526.685 553.595 522.11 553.844C514.93 554.481 507.394 552.756 503.027 546.587L481.271 510.534C476.935 503.344 470.049 498.051 461.987 495.706C453.924 493.362 445.274 494.141 437.759 497.884" stroke="black" stroke-width="2" stroke-miterlimit="10"/>
<path d="M584.472 521.998C590.16 535.518 586.306 544.235 579.655 548.618C568.777 555.751 554.216 552.332 546.508 541.92L502.266 474.585" stroke="black" stroke-width="2" stroke-miterlimit="10"/>
<path d="M539.639 454.932C555.739 474.512 576.049 510.876 587.285 526.058C598.52 541.241 615.894 532.088 615.894 532.088C630.004 524.489 627.611 511.886 621.442 496.579C606.244 459.003 584.55 434.015 560.354 417.636C485.374 366.913 408.451 404.334 385.56 491.886L295.04 742.841C291.739 755.486 291.383 768.719 293.995 781.522C296.609 794.325 302.124 806.36 310.117 816.698C318.107 827.037 328.364 835.405 340.095 841.161C351.827 846.916 364.723 849.904 377.79 849.896H638.272L790.175 1239.55" stroke="black" stroke-width="2" stroke-miterlimit="10"/>
<path d="M632.646 479.344C651.294 472.879 650.439 443.135 623.975 433.097C594.744 422.001 542.84 406.306 529.802 402.389C529.721 402.327 529.623 402.29 529.522 402.281C528.606 402.001 527.968 401.768 527.471 401.659L526.741 401.426" stroke="black" stroke-width="2" stroke-miterlimit="10"/>
<path d="M908.17 776.731C891.853 757.119 847.191 746.008 818.038 740.632C813.139 739.712 808.671 737.224 805.307 733.544C801.944 729.864 799.868 725.191 799.39 720.227C799.052 716.88 799.439 713.499 800.525 710.313C802.262 705.423 805.592 701.258 809.979 698.485C814.366 695.713 819.558 694.493 824.721 695.022C874.449 700.057 925.731 715.705 963.664 749.412C963.664 749.412 1147.55 889.738 1169.51 903.397C1178.57 908.899 1187.02 902.403 1180.88 893.763L1178.95 890.468C1168.15 871.92 1155.35 854.6 1140.8 838.813" stroke="black" stroke-width="2" stroke-miterlimit="10"/>
<path d="M911.573 565.513C680.307 567.44 481.52 654.992 481.52 654.992L501.364 543.757" stroke="black" stroke-width="2" stroke-miterlimit="10"/>
<path d="M1270.76 1170.9C1270.76 1170.9 1245.57 1165.2 1238.88 1185.37C1232.18 1205.54 1225.19 1237.63 1273.34 1239.53C1321.5 1241.42 1293.22 1231.96 1290.44 1216.37C1287.66 1200.79 1270.76 1170.9 1270.76 1170.9Z" fill="#353642"/>
<path d="M885.948 802.328C885.948 802.328 858.768 781.722 834.293 802.608C833.263 803.516 832.363 804.561 831.62 805.716" stroke="black" stroke-width="2" stroke-miterlimit="10"/>
<g opacity="0.77">
<path opacity="0.77" d="M546.414 541.847C554.184 552.274 568.73 555.678 579.561 548.529C586.135 544.178 589.989 535.507 584.441 522.111C585.451 523.588 586.368 524.893 587.269 526.089C598.489 541.334 615.878 532.15 615.878 532.15C629.988 524.551 627.611 511.948 621.441 496.626C615.404 481.449 607.483 467.092 597.867 453.891C604.161 448.001 611.636 442.049 619.514 444.66C628.015 447.488 630.393 458.149 631.356 467.037C631.807 471.171 632.257 475.258 632.708 479.392L639.514 540.246C641.783 560.448 644.052 580.946 648.978 600.666C651.525 611.328 655.051 621.732 659.514 631.746C665.76 645.705 674.585 658.36 685.528 669.042C699.177 655.52 711.127 640.388 721.115 623.976C730.669 627.102 739.095 632.97 745.342 640.848C751.587 648.725 755.382 658.263 756.251 668.28V668.793C760.105 705.172 725.078 732.507 695.645 749.322C661.643 768.871 623.741 783.51 586.508 795.677C571.154 800.712 551.201 805.001 534.992 799.749C533.247 799.193 531.544 798.512 529.895 797.713C513.734 789.788 502.918 773.175 494.48 757.993C454.076 685.343 437.292 601.925 428.45 519.314C446.135 516.874 463.757 514.155 481.162 510.41C481.162 510.41 481.162 510.534 481.271 510.581L501.333 543.852L502.98 546.618C507.331 552.834 514.868 554.497 522.063 553.875C526.638 553.648 531.033 552.021 534.651 549.213C545.808 539.889 535.334 527.239 529.553 518.335" fill="white"/>
<path opacity="0.77" d="M546.414 541.847C554.184 552.274 568.73 555.678 579.561 548.529C586.135 544.178 589.989 535.507 584.441 522.111C585.451 523.588 586.368 524.893 587.269 526.089C598.489 541.334 615.878 532.15 615.878 532.15C629.988 524.551 627.611 511.948 621.441 496.626C615.404 481.449 607.483 467.092 597.867 453.891C604.161 448.001 611.636 442.049 619.514 444.66C628.015 447.488 630.393 458.149 631.356 467.037C631.807 471.171 632.257 475.258 632.708 479.392L639.514 540.246C641.783 560.448 644.052 580.946 648.978 600.666C651.525 611.328 655.051 621.732 659.514 631.746C665.76 645.705 674.585 658.36 685.528 669.042C699.177 655.52 711.127 640.388 721.115 623.976C730.669 627.102 739.095 632.97 745.342 640.848C751.587 648.725 755.382 658.263 756.251 668.28V668.793C760.105 705.172 725.078 732.507 695.645 749.322C661.643 768.871 623.741 783.51 586.508 795.677C571.154 800.712 551.201 805.001 534.992 799.749C533.247 799.193 531.544 798.512 529.895 797.713C513.734 789.788 502.918 773.175 494.48 757.993C454.076 685.343 437.292 601.925 428.45 519.314C446.135 516.874 463.757 514.155 481.162 510.41C481.162 510.41 481.162 510.534 481.271 510.581L501.333 543.852L502.98 546.618C507.331 552.834 514.868 554.497 522.063 553.875C526.638 553.648 531.033 552.021 534.651 549.213C545.808 539.889 535.334 527.239 529.553 518.335" fill="#FFAE35"/>
<path opacity="0.77" d="M551.185 546.773C558.069 556.097 569.833 554.916 579.561 548.529C585.435 544.644 590.253 545.779 585.296 533.797C586.212 535.103 586.337 530.689 587.145 531.668C597.168 545.281 587.269 526.043 587.269 526.043C601.255 543.712 631.698 527.069 626.119 513.409C620.214 498.692 613.998 476.936 606.119 466.058C612.335 460.184 611.139 461.055 619.048 465.732C621.173 467.097 622.952 468.938 624.243 471.109C625.536 473.28 626.306 475.721 626.492 478.242C627.129 484.163 627.766 489.835 628.403 495.616L634.464 550.006C636.5 568.079 638.52 586.338 642.918 603.929C645.191 613.441 648.344 622.722 652.335 631.653C657.898 643.945 675.769 664.411 685.529 673.782C697.665 661.738 712.211 639.594 721.115 624.877C738.209 630.13 737.463 646.478 738.675 664.333V664.8C742.125 697.263 710.859 721.645 684.658 736.672C654.293 754.123 620.463 767.177 587.222 778.055C573.516 782.562 555.707 786.447 541.24 781.691C539.679 781.199 538.156 780.59 536.686 779.873C522.265 772.787 512.599 757.977 505.062 744.411C472.071 685.157 456.764 617.884 448.341 550.441C447.723 545.393 449.089 540.305 452.15 536.246C455.212 532.187 459.729 529.476 464.752 528.685C474.216 527.131 483.648 525.577 493.019 523.494L493.283 523.619L511.185 553.316C515.086 558.832 515.723 554.512 522.141 553.953C526.197 553.595 534.06 552.803 537.199 550.176C547.16 541.878 541.535 538.444 536.376 530.503" fill="#FFAE35"/>
</g>
<path d="M882.67 832.322C882.67 832.322 831.061 815.353 830.284 843.884" stroke="black" stroke-width="2" stroke-miterlimit="10"/>
<path opacity="0.54" d="M420.711 1122.96L319.499 863.66C318.245 858.642 318.152 853.405 319.224 848.346C320.298 843.287 322.511 838.538 325.693 834.462C328.878 830.386 332.948 827.088 337.597 824.821C342.245 822.554 347.35 821.376 352.522 821.376H754.542C763.569 821.374 772.333 824.412 779.424 830.001C786.514 835.587 791.516 843.399 793.625 852.176L904.425 1111.41C905.623 1116.42 905.671 1121.62 904.568 1126.65C903.463 1131.67 901.236 1136.37 898.052 1140.41C894.868 1144.45 890.81 1147.71 886.184 1149.96C881.558 1152.2 876.482 1153.37 871.34 1153.37H459.701C450.741 1153.38 442.037 1150.39 434.972 1144.88C427.908 1139.37 422.888 1131.65 420.711 1122.96Z" fill="white"/>
<path d="M899.468 876.061C899.468 876.061 907.844 883.738 904.658 894.709C902.296 902.837 894.215 907.965 886.212 905.183C860.726 896.372 837.774 881.407 832.179 855.968C829.536 843.088 828.964 829.868 830.486 816.807C831.713 804.701 833.5 791.632 837.572 780.117C843.788 762.433 862.824 750.109 881.301 758.625" stroke="black" stroke-width="2" stroke-miterlimit="10"/>
<path d="M420.711 1122.96L319.499 863.66C318.245 858.642 318.152 853.405 319.224 848.346C320.298 843.287 322.511 838.538 325.693 834.462C328.878 830.386 332.948 827.088 337.597 824.821C342.245 822.554 347.35 821.376 352.522 821.376H754.542C763.569 821.374 772.333 824.412 779.424 830.001C786.514 835.587 791.516 843.399 793.625 852.176L904.425 1111.41C905.623 1116.42 905.671 1121.62 904.568 1126.65C903.463 1131.67 901.236 1136.37 898.052 1140.41C894.868 1144.45 890.81 1147.71 886.184 1149.96C881.558 1152.2 876.482 1153.37 871.34 1153.37H459.701C450.741 1153.38 442.037 1150.39 434.972 1144.88C427.908 1139.37 422.888 1131.65 420.711 1122.96Z" fill="#FFAE35"/>
<path d="M420.711 1122.96L319.499 863.66C318.245 858.642 318.152 853.405 319.224 848.346C320.298 843.287 322.511 838.538 325.693 834.462C328.878 830.386 332.948 827.088 337.597 824.821C342.245 822.554 347.35 821.376 352.522 821.376H754.542C763.569 821.374 772.333 824.412 779.424 830.001C786.514 835.587 791.516 843.399 793.625 852.176L904.425 1111.41C905.623 1116.42 905.671 1121.62 904.568 1126.65C903.463 1131.67 901.236 1136.37 898.052 1140.41C894.868 1144.45 890.81 1147.71 886.184 1149.96C881.558 1152.2 876.482 1153.37 871.34 1153.37H459.701C450.741 1153.38 442.037 1150.39 434.972 1144.88C427.908 1139.37 422.888 1131.65 420.711 1122.96Z" stroke="black" stroke-width="2" stroke-linecap="square" stroke-linejoin="round"/>
<path d="M435.521 1112.52L342.141 873.202C340.986 868.572 340.903 863.741 341.894 859.074C342.885 854.408 344.927 850.027 347.866 846.268C350.803 842.509 354.559 839.467 358.847 837.376C363.136 835.284 367.844 834.196 372.615 834.196H743.493C751.819 834.193 759.905 836.995 766.445 842.148C772.986 847.301 777.601 854.507 779.546 862.603L881.783 1101.78C882.887 1106.39 882.93 1111.2 881.911 1115.83C880.891 1120.47 878.834 1124.81 875.895 1128.53C872.958 1132.26 869.213 1135.27 864.944 1137.34C860.675 1139.41 855.991 1140.49 851.247 1140.49H471.481C463.227 1140.5 455.209 1137.75 448.696 1132.68C442.181 1127.61 437.546 1120.52 435.521 1112.52Z" fill="#FFAE35"/>
<path d="M1229.26 1074.98L1300.37 1239.53" stroke="black" stroke-width="2" stroke-miterlimit="10"/>
<path d="M1566.6 1239.53H168" stroke="black" stroke-width="2" stroke-miterlimit="10"/>
<path d="M905.171 496.84C893.64 508.231 876.422 508.215 866.616 497.679" stroke="black" stroke-width="2" stroke-miterlimit="10"/>
<path d="M597.867 453.841C604.161 447.951 611.636 441.999 619.514 444.61C628.015 447.438 630.392 458.099 631.356 466.988C634.08 491.417 636.8 515.821 639.514 540.198C642.964 571.278 646.601 603.103 659.514 631.665C665.76 645.625 674.585 658.279 685.528 668.961" stroke="black" stroke-width="2" stroke-miterlimit="10"/>
<path d="M756.251 668.775V668.262C755.382 658.246 751.588 648.706 745.342 640.829C739.095 632.953 730.669 627.085 721.115 623.957C711.128 640.369 699.177 655.503 685.529 669.023C649.745 704.605 603.776 728.17 553.998 736.451C556.391 745.977 561.317 754.649 564.721 763.817C568.124 772.986 569.818 783.6 565.684 792.442C560.463 803.724 545.482 802.248 535.07 799.746C534.961 799.746 534.899 799.746 534.791 799.746" stroke="black" stroke-width="2" stroke-miterlimit="10"/>
<path d="M481.193 510.394C463.788 514.139 446.166 516.859 428.481 519.298C437.324 601.909 454.045 685.328 494.511 757.977C502.949 773.16 513.765 789.772 529.927 797.698C531.575 798.498 533.279 799.179 535.024 799.733C551.232 805.064 571.185 800.697 586.539 795.662C623.835 783.478 661.675 768.855 695.676 749.306C725.031 732.476 760.058 705.157 756.282 668.778C755.917 664.771 755.098 660.82 753.842 656.998" stroke="black" stroke-width="2" stroke-miterlimit="10"/>
<path d="M772.227 345.603C774.834 356.478 780.788 366.259 789.249 373.569C797.711 380.881 808.253 385.35 819.39 386.349C820.315 381.864 822.321 377.67 825.233 374.136C837.665 359.482 842.965 386.972 882.731 367.236C937.836 339.824 958.753 355.55 958.753 355.55C960.587 356.918 960.307 369.535 960.618 371.835C962.172 384.935 963.571 397.973 965.109 411.058C966.041 419.045 966.958 426.972 967.829 434.898C968.579 433.549 969.409 432.245 970.315 430.996C975.334 413.233 984.301 392.256 1003.63 401.285C1007.55 403.193 1010.96 405.998 1013.58 409.473C1026.4 426.318 1016.69 442.588 1003.28 454.632C999.914 458.369 996.156 461.729 992.071 464.657C994.278 469.225 1003.29 487.361 1003.29 487.423C1004.22 489.257 1035.72 453.606 1038.07 449.721C1041.58 440.205 1043.46 430.166 1043.63 420.026C1044.15 378.332 1027.18 329.799 993.407 305.883C985.031 299.962 987.704 294.259 987.191 286.209C987.156 285.774 986.989 285.361 986.713 285.022C986.438 284.683 986.065 284.436 985.647 284.313C985.227 284.191 984.781 284.198 984.366 284.334C983.951 284.47 983.588 284.728 983.322 285.076C972.739 297.26 946.539 296.048 946.539 296.048C855.599 273.266 825.031 313.701 806.679 320.912C799.19 323.748 790.948 323.885 783.369 321.3C782.923 323.808 781.799 326.147 780.121 328.065C778.441 329.982 776.272 331.404 773.843 332.178L774.309 336.388C774.705 339.609 773.969 342.867 772.227 345.603Z" fill="#FFAE35"/>
<path d="M819.452 386.418C808.315 385.417 797.772 380.947 789.311 373.637C780.849 366.327 774.894 356.545 772.288 345.672C771.267 341.501 770.622 337.246 770.361 332.96L771.076 332.882C772.054 332.809 773.016 332.599 773.936 332.261C776.364 331.487 778.534 330.065 780.214 328.147C781.892 326.231 783.016 323.891 783.462 321.383C783.746 319.992 783.803 318.564 783.633 317.156L781.302 296.581C781.302 296.581 797.743 308.811 815.987 301.662C834.231 294.514 864.86 254.079 955.847 276.798C955.847 276.798 976.391 278.01 986.927 265.827C987.192 265.479 987.556 265.221 987.971 265.086C988.386 264.949 988.832 264.943 989.252 265.066C989.67 265.188 990.043 265.435 990.318 265.773C990.594 266.111 990.76 266.526 990.796 266.962C991.34 275.027 994.324 280.73 1002.72 286.635C1036.48 310.567 1053.45 359.083 1052.93 400.776C1052.77 418.072 1047.02 435.151 1038.15 449.805C1035.8 453.69 1004.3 489.339 1003.37 487.505C1003.37 487.505 994.355 469.308 992.148 464.739L991.62 463.729L992.63 463.061C996.381 460.514 999.963 457.726 1003.35 454.716C1016.75 442.672 1026.48 426.402 1013.66 409.557C1011.03 406.082 1007.62 403.275 1003.71 401.367C984.316 392.338 975.412 413.317 970.392 431.079C969.418 434.473 968.818 437.965 968.605 441.491C968.372 439.316 968.139 437.218 967.906 435.042C967.036 427.117 966.119 419.191 965.186 411.204C963.632 398.119 962.172 385.081 960.695 371.981C960.462 369.743 960.695 357.062 958.83 355.695C958.83 355.695 937.898 339.968 882.809 367.381C843.042 387.117 837.743 359.611 825.311 374.281C822.399 377.816 820.392 382.009 819.468 386.495C819.183 387.936 819.002 389.395 818.924 390.862C818.894 391.052 818.894 391.246 818.924 391.437C818.737 394.654 818.675 397.855 818.597 400.994C818.302 431.281 821.628 462.921 833.516 491.048C847.968 525.143 886.212 558.772 925.979 542.874C938.411 537.886 949.553 529.852 959.747 521.32" stroke="black" stroke-width="2" stroke-miterlimit="10"/>
<path d="M846.666 460.285C850.62 458.961 852.529 454.009 850.928 449.224C849.328 444.438 844.823 441.631 840.866 442.955C836.911 444.278 835.003 449.23 836.603 454.017C838.206 458.803 842.711 461.609 846.666 460.285Z" fill="black"/>
<path d="M905.836 458.391C909.791 457.069 911.7 452.116 910.099 447.33C908.497 442.543 903.993 439.737 900.037 441.061C896.082 442.385 894.174 447.337 895.774 452.122C897.375 456.908 901.88 459.715 905.836 458.391Z" fill="black"/>
<path d="M883.213 468.64C883.213 468.64 863.524 479.813 862.327 468.22C861.954 464.646 857.137 429.634 857.137 429.634C857.137 429.634 841.224 412.773 816.842 425.236" stroke="black" stroke-width="2" stroke-miterlimit="10"/>
<path d="M878.784 419.824C878.784 419.824 910.579 403.942 931.62 426.832" stroke="black" stroke-width="2" stroke-miterlimit="10"/>
<path d="M907.937 546.773L911.589 565.514C900.074 576.128 891.931 591.342 894.308 607.364C896.422 621.567 908.046 634.792 919.965 642.235C939.887 654.667 966.383 653.688 987.828 645.779C1008.79 638.009 1026.93 623.261 1040.07 605.266C1046.26 596.566 1050.39 586.57 1052.13 576.035V575.849" stroke="black" stroke-width="2" stroke-miterlimit="10"/>
<path d="M911.589 565.513L918.706 599.359" stroke="black" stroke-width="2" stroke-miterlimit="10"/>
<path d="M1012.24 479.345L1023 550.751C1024.05 557.741 1027.59 564.119 1032.95 568.724C1038.32 573.33 1045.16 575.858 1052.23 575.849C1085.69 581.272 1118.71 589.188 1151 599.532C1277.14 640.215 1354.77 753.844 1376.7 880.806C1385.82 933.968 1386.51 989.725 1375.05 1042.59C1368.54 1072.35 1359.13 1105.78 1337.26 1128.06C1308.87 1157.12 1265.29 1145.16 1231.74 1132.03C1127.58 1091.51 1040.94 1019.44 966.134 936.921C926.134 892.787 874.448 857.418 874.448 857.418" stroke="black" stroke-width="2" stroke-miterlimit="10"/>
<path d="M469.942 1058.96C458.256 1058.85 448.077 1049.42 445.451 1036.28C440.261 1010.46 438.893 970.52 476.764 961.802C524.083 950.924 560.478 1002.45 578.318 1035.03C584.316 1045.9 577.525 1059.89 566.352 1059.89L469.942 1058.96Z" fill="#D7E8F0"/>
<path d="M485.565 939.872C495.61 933.187 495.765 915.76 485.908 900.949C476.053 886.136 459.919 879.547 449.872 886.232C439.826 892.918 439.672 910.344 449.527 925.155C459.384 939.968 475.518 946.557 485.565 939.872Z" fill="#D7E8F0"/>
<path d="M1263.21 1171.76C1262.48 1171.86 1261.66 1171.97 1260.94 1172.14H1260.66L1150.13 1171.57L984.269 1170.72C983.632 1170.72 983.011 1170.72 982.389 1170.72C981.157 1170.69 979.927 1170.59 978.706 1170.44C989.943 1169.13 1000.36 1163.9 1008.12 1155.67C1015.89 1147.45 1020.5 1136.74 1021.15 1125.45C1021.18 1124.86 1021.18 1124.28 1021.15 1123.69V1122.79C1021.1 1111.74 1017.25 1101.04 1010.24 1092.5C1003.23 1083.95 993.497 1078.08 982.669 1075.87C981.534 1075.59 980.291 1075.42 979.095 1075.25C980.975 1075.08 982.84 1074.96 984.658 1074.96L1124.78 1075.7L1150.58 1075.81L1185.37 1075.98C1197.29 1077.07 1208.37 1082.56 1216.44 1091.39C1224.52 1100.21 1229.02 1111.73 1229.06 1123.69C1229.06 1125.95 1228.89 1128.2 1228.54 1130.44C1226.89 1141.82 1221.2 1152.24 1212.51 1159.79C1203.82 1167.34 1192.72 1171.52 1181.21 1171.57H1265.4C1260.56 1171.57 1261.91 1171.57 1263.21 1171.76Z" fill="white"/>
<path d="M1039 1229.56C1042.16 1232.73 1045.91 1235.25 1050.05 1236.96C1054.19 1238.67 1058.63 1239.55 1063.1 1239.53H981.705C966.165 1239.53 957.68 1235.74 951.495 1229.56C945.139 1223.17 941.561 1214.54 941.534 1205.53C941.534 1186.88 956.826 1171.59 981.705 1171.59H1063.1C1056.38 1171.58 1049.81 1173.57 1044.22 1177.29C1038.63 1181.02 1034.27 1186.33 1031.7 1192.53C1029.13 1198.74 1028.45 1205.58 1029.77 1212.17C1031.08 1218.76 1034.32 1224.81 1039.08 1229.56H1039Z" fill="#D7E8F0"/>
<path d="M1307.83 1124.55C1307.81 1131.72 1306.14 1138.8 1302.95 1145.23C1300.67 1150.09 1297.55 1154.51 1293.72 1158.27C1287.41 1164.52 1279.48 1168.9 1270.83 1170.9C1267.26 1171.73 1263.61 1172.14 1259.95 1172.14C1260.7 1171.97 1261.5 1171.86 1262.22 1171.76C1260.91 1171.63 1259.56 1171.59 1264.43 1171.59H1180.21C1191.73 1171.54 1202.85 1167.36 1211.54 1159.81C1220.23 1152.26 1225.93 1141.83 1227.58 1130.44C1227.92 1128.2 1228.09 1125.95 1228.09 1123.69C1228.06 1111.73 1223.56 1100.21 1215.48 1091.38C1207.39 1082.56 1196.31 1077.07 1184.39 1075.98L1229.85 1076.22L1260.21 1076.39C1272.9 1076.49 1285.03 1081.62 1293.96 1090.64C1302.88 1099.67 1307.87 1111.86 1307.83 1124.55Z" fill="#FFAE35"/>
<path d="M1307.83 1124.53C1307.73 1137.23 1302.61 1149.37 1293.58 1158.3C1284.55 1167.23 1272.35 1172.21 1259.65 1172.16L983.166 1170.73C981.317 1170.73 979.467 1170.59 977.603 1170.41C989.258 1169.09 1000.02 1163.54 1007.86 1154.81C1015.69 1146.08 1020.06 1134.78 1020.12 1123.05C1020.18 1111.32 1015.94 1099.98 1008.19 1091.17C1000.45 1082.36 989.741 1076.7 978.1 1075.26C979.948 1075.06 981.805 1074.97 983.663 1074.98L1260.15 1076.41C1272.85 1076.49 1284.99 1081.61 1293.93 1090.62C1302.86 1099.64 1307.86 1111.84 1307.83 1124.53Z" stroke="black" stroke-width="2" stroke-linecap="square" stroke-linejoin="round"/>
<path d="M1228.06 1123.68C1228.04 1136.37 1222.98 1148.54 1214.01 1157.52C1205.03 1166.49 1192.86 1171.55 1180.17 1171.57H983.446C981.588 1171.56 979.731 1171.46 977.883 1171.26C989.528 1169.88 1000.26 1164.27 1008.05 1155.5C1015.84 1146.73 1020.14 1135.41 1020.14 1123.68C1020.14 1111.96 1015.84 1100.64 1008.05 1091.87C1000.26 1083.1 989.528 1077.49 977.883 1076.11C979.732 1075.94 981.597 1075.81 983.446 1075.81H1180.17C1192.86 1075.84 1205.02 1080.89 1213.99 1089.86C1222.97 1098.83 1228.02 1110.99 1228.06 1123.68Z" stroke="black" stroke-width="2" stroke-linecap="square" stroke-linejoin="round"/>
<path d="M941.534 1205.54C941.533 1210 942.411 1214.41 944.117 1218.53C945.825 1222.65 948.325 1226.39 951.48 1229.53C957.696 1235.75 966.134 1239.53 981.689 1239.53H1264.41C1259.54 1239.53 1260.87 1239.43 1262.19 1239.31C1253.91 1238.34 1246.29 1234.36 1240.75 1228.13C1235.22 1221.91 1232.16 1213.87 1232.16 1205.54C1232.16 1197.21 1235.22 1189.17 1240.75 1182.95C1246.29 1176.72 1253.91 1172.75 1262.19 1171.77C1260.87 1171.65 1259.54 1171.55 1264.41 1171.55H981.689C956.794 1171.57 941.534 1186.86 941.534 1205.54Z" stroke="black" stroke-width="2" stroke-linecap="square" stroke-linejoin="round"/>
<path d="M1029.02 1205.54C1029.04 1214.55 1032.63 1223.18 1039 1229.55C1045.37 1235.92 1054 1239.51 1063.01 1239.53H1258.24C1259.54 1239.53 1260.87 1239.43 1262.19 1239.31C1253.91 1238.34 1246.29 1234.36 1240.75 1228.13C1235.22 1221.91 1232.16 1213.87 1232.16 1205.54C1232.16 1197.21 1235.22 1189.17 1240.75 1182.95C1246.29 1176.72 1253.91 1172.75 1262.19 1171.77C1260.87 1171.65 1259.54 1171.55 1258.24 1171.55H1063.01C1054 1171.58 1045.37 1175.17 1039.01 1181.54C1032.64 1187.9 1029.05 1196.53 1029.02 1205.54Z" stroke="black" stroke-width="2" stroke-linecap="square" stroke-linejoin="round"/>
<path d="M712.552 946.243H625.342C621.351 946.237 617.449 945.068 614.111 942.883C610.773 940.698 608.142 937.59 606.539 933.935C605.92 932.576 605.654 931.081 605.769 929.59C605.883 928.1 606.372 926.664 607.191 925.413C608.01 924.164 609.132 923.141 610.453 922.44C611.774 921.741 613.249 921.387 614.744 921.41H707.455C703.089 928.76 705.311 938.97 712.552 946.243Z" fill="#D7E8F0"/>
<path d="M768.948 937.258C768.943 939.635 767.998 941.913 766.317 943.593C764.637 945.275 762.359 946.221 759.981 946.224H712.553C705.311 938.967 703.089 928.757 707.456 921.36H749.336C753.322 921.362 757.221 922.519 760.562 924.692C763.902 926.866 766.541 929.963 768.155 933.606C768.657 934.76 768.926 936 768.948 937.258Z" fill="#FFAE35"/>
<path d="M747.13 946.241C746.884 946.715 746.598 947.168 746.275 947.593C740.059 956.094 726.555 956.917 716.065 949.241C714.825 948.325 713.652 947.323 712.553 946.241C705.311 938.984 703.089 928.774 707.456 921.377C707.701 920.903 707.987 920.451 708.311 920.025C714.527 911.463 727.969 910.701 738.458 918.316C739.722 919.261 740.91 920.3 742.017 921.424C749.196 928.65 751.434 938.798 747.13 946.241Z" fill="white"/>
<path d="M790.875 992.01C790.858 994.389 789.902 996.665 788.213 998.342C786.525 1000.02 784.241 1000.96 781.861 1000.96H690.346C694.76 993.533 692.553 983.4 685.296 976.097H771.263C775.255 976.098 779.159 977.261 782.502 979.442C785.843 981.626 788.477 984.734 790.082 988.389C790.595 989.528 790.864 990.76 790.875 992.01Z" fill="#FFAE35"/>
<path d="M690.346 1000.96H647.284C643.298 1000.96 639.396 999.803 636.055 997.629C632.714 995.455 630.077 992.356 628.465 988.711C627.957 987.57 627.688 986.339 627.673 985.09C627.671 983.915 627.901 982.749 628.35 981.662C628.8 980.575 629.458 979.589 630.29 978.756C631.121 977.924 632.11 977.265 633.196 976.816C634.284 976.367 635.448 976.137 636.624 976.139H685.295C692.552 983.396 694.806 993.528 690.346 1000.96Z" fill="#D7E8F0"/>
<path d="M690.346 1000.96C690.144 1001.45 689.877 1001.91 689.554 1002.33C683.338 1010.87 669.88 1011.65 659.406 1004.02C658.138 1003.07 656.945 1002.03 655.832 1000.91C648.637 993.654 646.43 983.522 650.735 976.047C650.983 975.568 651.269 975.112 651.589 974.68C657.805 966.179 671.31 965.356 681.784 973.048C683.032 973.954 684.205 974.956 685.296 976.047C692.553 983.397 694.806 993.53 690.346 1000.96Z" fill="white"/>
<path d="M720.836 1055.3H666.041C662.057 1055.3 658.16 1054.14 654.82 1051.97C651.479 1049.79 648.84 1046.7 647.223 1043.06C646.606 1041.69 646.343 1040.2 646.458 1038.7C646.575 1037.21 647.064 1035.77 647.883 1034.52C648.704 1033.27 649.826 1032.24 651.146 1031.53C652.469 1030.83 653.945 1030.47 655.443 1030.49H715.738C711.418 1037.93 713.641 1048.05 720.836 1055.3Z" fill="#FFAE35"/>
<path d="M809.631 1046.41C809.619 1048.78 808.669 1051.04 806.993 1052.71C805.314 1054.37 803.044 1055.31 800.68 1055.3H720.836C713.641 1048.05 711.419 1037.91 715.739 1030.44H790.02C794.011 1030.44 797.916 1031.6 801.258 1033.78C804.6 1035.97 807.234 1039.08 808.839 1042.73C809.35 1043.89 809.621 1045.14 809.631 1046.41Z" fill="#D7E8F0"/>
<path d="M755.412 1055.3C755.164 1055.78 754.878 1056.24 754.558 1056.67C748.342 1065.22 734.9 1066 724.41 1058.37C723.15 1057.42 721.961 1056.38 720.851 1055.26C713.656 1048 711.434 1037.87 715.754 1030.39C715.992 1029.91 716.272 1029.45 716.593 1029.03C722.809 1020.53 736.314 1019.8 746.803 1027.39C748.05 1028.3 749.224 1029.3 750.315 1030.39C757.557 1037.74 759.764 1047.94 755.412 1055.3Z" fill="white"/>
<path d="M341.442 559.873L342.809 560.262L342.297 562.251C341.972 561.474 341.686 560.68 341.442 559.873Z" fill="#353642"/>
<path d="M584.636 684.2C605.093 678.195 615.841 653.452 608.644 628.936C601.448 604.422 579.031 589.415 558.576 595.42C538.119 601.426 527.372 626.167 534.568 650.683C541.765 675.199 564.181 690.204 584.636 684.2Z" fill="#D7E8F0"/>
</svg>
